<?xml version="1.0" encoding="UTF-8"?>
<svg id="Layer_1" xmlns="http://www.w3.org/2000/svg" version="1.1" viewBox="0 0 239.6 256.8" width="100%" height="100%">
  <!-- Generator: Adobe Illustrator 29.4.0, SVG Export Plug-In . SVG Version: 2.1.0 Build 152)  -->
  <defs>
    <style>
      .play_icon {
        fill: inherit;
      }
    </style>
  </defs>
  <path class="play_icon" d="M65.1,256.8c-11.6,0-22.6-3-32.7-8.9-10-5.8-18.1-13.8-23.8-23.7-5.7-9.8-8.7-20.8-8.7-32.6v-126.3c0-11.9,2.9-22.8,8.7-32.6,5.7-9.9,13.7-17.8,23.8-23.7C42.6,3,53.5,0,65.1,0s22.5,3,32.6,8.9l109.4,63.1c10,5.9,18,13.8,23.8,23.6v.2c5.8,10,8.7,21,8.7,32.6s-2.9,22.4-8.6,32.5v.2c-5.9,9.8-13.9,17.8-23.9,23.6l-109.4,63.1c-10.1,5.9-21,8.9-32.6,8.9ZM65.1,30c-6.3,0-12,1.6-17.5,4.8-5.7,3.3-9.9,7.5-13,12.9h0c-3.1,5.3-4.6,11-4.6,17.5v126.3c0,6.5,1.5,12.2,4.6,17.5,3.2,5.4,7.4,9.7,13,12.9,5.5,3.3,11.3,4.8,17.5,4.8s12-1.6,17.5-4.8h0c0,0,109.3-63.1,109.3-63.1,5.5-3.3,9.8-7.5,13-12.9,3.1-5.5,4.6-11.2,4.6-17.6s-1.5-12.2-4.6-17.7c-3.2-5.4-7.4-9.6-13-12.9l-109.4-63.1c-5.5-3.2-11.2-4.8-17.5-4.8Z"/>
</svg>