<?xml version="1.0" encoding="UTF-8"?>
<svg id="Isolation_Mode" xmlns="http://www.w3.org/2000/svg" version="1.1" viewBox="0 0 237.9 221.5">
  <!-- Generator: Adobe Illustrator 29.4.0, SVG Export Plug-In . SVG Version: 2.1.0 Build 152)  -->
  <path d="M119,0c10.5,0,20.3,2.6,29.3,7.8,8.9,5.1,16.1,12.3,21.4,21.4l60.6,105.1h0c5,8.8,7.6,18.4,7.6,28.5,0,10.3-2.7,20.2-7.9,29.4-5.3,9.1-12.6,16.3-21.4,21.4h0c-9,5.1-18.8,7.7-29.3,7.7H58.7c-10.5,0-20.4-2.6-29.3-7.7-8.9-5.2-16.1-12.4-21.3-21.4C2.7,183.1,0,173.3,0,162.9c0-10.4,2.7-20.3,8-29.3L68.3,29.3c5.3-9.1,12.5-16.4,21.3-21.4C98.6,2.7,108.4,0,119,0ZM228.6,133.4l-59.8-103.6c-5.3-9-12.3-16.1-21.1-21.1-8.8-5.1-18.5-7.7-28.8-7.7-10.4,0-20.1,2.6-28.9,7.7-8.7,5-15.8,12.1-21,21.1L8.9,134.2c-5.2,8.9-7.9,18.6-7.9,28.8,0,10.1,2.6,19.9,7.9,28.9,5.2,8.9,12.2,16,21,21.1,8.7,5,18.4,7.6,28.8,7.6h120.5c10.3,0,20-2.6,28.8-7.6,8.7-5.1,15.8-12.2,21.1-21.1,5.2-9,7.8-18.7,7.8-28.9,0-10.2-2.7-19.9-7.9-28.8l-.4-.8h.1Z"/>
  <path d="M119.1,39.6c3.4,0,6.5.8,9.4,2.5,2.9,1.7,5.3,4,7,7l60.2,104.3c1.7,3,2.5,6.1,2.5,9.4,0,3.4-.8,6.6-2.5,9.5h0c-1.7,2.9-4.1,5.3-6.9,6.9h-.2c-2.8,1.8-5.9,2.6-9.3,2.6H58.6c-3.3,0-6.5-.8-9.3-2.5,0,0-.2-.1-.2-.2-2.9-1.7-5.2-4-6.8-6.9-1.7-3-2.6-6.2-2.6-9.5,0-3.3.9-6.5,2.6-9.5l60.2-104.3c1.7-2.9,4-5.3,6.9-7h0c0,0,.2,0,.3-.1,2.8-1.6,6-2.4,9.3-2.4,0,0,0,0,.1,0ZM194.8,171.9c1.6-2.8,2.4-5.9,2.4-9.1,0-3.1-.8-6.2-2.4-9l-60.2-104.3c-1.7-2.8-3.9-5.1-6.7-6.7-2.7-1.6-5.7-2.4-8.9-2.4h0c-3.2,0-6.2.8-8.9,2.4h-.2c0,0,0,0,0,0-2.7,1.6-4.9,3.8-6.4,6.6l-60.2,104.3c-1.6,2.8-2.5,5.8-2.5,9,0,3.2.8,6.2,2.5,9,1.6,2.8,3.8,5,6.6,6.6l.2.2c2.7,1.6,5.6,2.4,8.7,2.3h120.6c3.2,0,6.1-.8,8.8-2.4h.2c2.7-1.7,4.9-3.9,6.5-6.7ZM49.8,178.6s0,0,0,0c0,0,0,0,0,0Z"/>
</svg>