<?xml version="1.0" encoding="UTF-8"?>
<svg id="Layer_1" xmlns="http://www.w3.org/2000/svg" version="1.1" viewBox="0 0 800 800">
  <!-- Generator: Adobe Illustrator 29.6.1, SVG Export Plug-In . SVG Version: 2.1.1 Build 9)  -->
  <defs>
  </defs>
  <path d="M576.3,725c-20.8,0-41.2-4.8-60.1-14.3,0,0-.2,0-.3-.1-91.1-46.9-174-107.4-246.5-179.8-72.5-72.4-133-155.3-180-246.3,0,0,0-.2-.1-.3-12.8-25.7-17.1-54.2-12.3-82.4,4.7-28.2,18-53.7,38.4-73.8l23.5-23.9.2-.2c18.7-18.6,43.5-28.8,69.8-28.8s51.1,10.2,69.8,28.8l52.4,52.4c18.6,18.7,28.8,43.5,28.8,69.8s-10.2,51.1-28.8,69.8l-29,29c25,32.3,52.2,63.2,81,92.1,28.9,29,59.9,56.2,92.4,81.2l28.8-28.9c9.2-9.3,19.9-16.5,31.9-21.5,12.1-5,24.8-7.6,37.9-7.6s25.8,2.6,37.9,7.6c12,5,22.8,12.3,31.9,21.5l51.9,51.9c9.3,9.2,16.6,20,21.6,32,5,12.1,7.6,24.8,7.6,37.9s-2.6,25.8-7.6,37.9c-5,12-12.3,22.8-21.5,31.9l-23.5,23.9c-20.2,20.4-45.8,33.6-74,38.3-7.4,1.2-14.8,1.8-22.2,1.8ZM538.6,666c16.1,8,34,10.7,51.7,7.8,17.8-2.9,33.9-11.3,46.6-24.1l23.6-24c0,0,.2-.2.2-.2,4.6-4.5,8.2-9.8,10.6-15.7,2.5-5.9,3.7-12.2,3.7-18.6s-1.3-12.7-3.7-18.6c-2.5-5.9-6-11.2-10.6-15.7h-.1c0-.1-52-52.1-52-52.1,0,0,0,0-.1-.1-4.5-4.6-9.8-8.2-15.7-10.6-5.9-2.5-12.2-3.7-18.6-3.7s-12.7,1.3-18.6,3.7c-5.9,2.5-11.2,6.1-15.8,10.6,0,0,0,0-.1.1l-44.3,44.3c-4.7,4.7-11,7.3-17.7,7.3s-12.7-2.5-17.3-7c-39.8-29.4-77.7-62-112.7-97-35.6-35.7-68.8-74.3-98.7-114.8-7.4-10-6.3-23.8,2.4-32.5l44.3-44.3c9.1-9.2,14.2-21.5,14.2-34.5s-5.1-25.3-14.2-34.5l-52.3-52.3c-9.2-9.1-21.5-14.2-34.5-14.2s-25.2,5-34.5,14.2l-23.6,23.9c0,.1-.2.2-.3.3-12.9,12.6-21.3,28.7-24.2,46.5-3,17.7-.3,35.6,7.7,51.7,90.1,174.6,230,314.4,404.7,404.3Z"/>
</svg>