<?xml version="1.0" encoding="UTF-8"?>
<svg id="Isolation_Mode" xmlns="http://www.w3.org/2000/svg" version="1.1" viewBox="0 0 312.5 60.8">
  <!-- Generator: Adobe Illustrator 29.4.0, SVG Export Plug-In . SVG Version: 2.1.0 Build 152)  -->
  <defs>
    <style>
      .st0 {
        fill: #00225e;
      }

      .st1 {
        fill: none;
        stroke: #00225e;
        stroke-miterlimit: 10;
      }
    </style>
  </defs>
  <path class="st1" d="M286,25.9c.6,1.1,1.5,2,2.7,2.7,1.1.7,2.4,1,3.6,1,1.3,0,2.5-.3,3.6-1h0s13-7.5,13-7.5h0c1.1-.7,2-1.5,2.7-2.7.6-1.1,1-2.3,1-3.6,0-1.3-.3-2.5-1-3.6-.6-1.1-1.5-2-2.7-2.6h0l-13-7.5h0C294.8.3,293.6,0,292.3,0c-1.3,0-2.5.3-3.6,1-1.1.7-2,1.5-2.7,2.6-.6,1.1-1,2.3-1,3.6v15c0,1.3.3,2.5,1,3.6"/>
  <path class="st1" d="M291.1,24.3c-.4-.2-.6-.5-.8-.8,0,0,0,0,0,0-.2-.3-.3-.7-.3-1.1V7.3c0-.4.1-.8.3-1.1,0,0,0,0,0,0,.2-.4.5-.6.8-.8.4-.2.7-.3,1.2-.3.4,0,.8.1,1.1.3l13,7.5c.4.2.6.5.9.8,0,0,0,0,0,0,.2.4.3.7.3,1.1,0,.4-.1.8-.3,1.1h0c-.2.4-.5.6-.9.9l-13,7.5c-.4.2-.7.3-1.1.3-.4,0-.8-.1-1.2-.3"/>
  <g>
    <path class="st0" d="M44.8,44c0,9.2-5.9,16-18,16H.7V3.2h22.3c13,0,18.8,5.4,18.8,13.8s-1.8,9.8-8.7,12.4v.2c8.9,2.3,11.7,7.8,11.7,14.4ZM15.4,25.6h5c3.7,0,6.2-1.7,6.2-4.6s-2-4.6-6.3-4.6h-4.8v9.2ZM29,41.7c0-2.9-2.1-5-7-5h-6.6v10.2h6.7c4.1,0,6.9-1.8,6.9-5.2Z"/>
    <path class="st0" d="M84.4,20.8v39.2h-14.3v-4.2h-.2c-2.7,3.3-6.5,5-10.6,5-8,0-13.8-4.3-13.8-17v-23h14.2v19.5c0,5.6,1.5,7.9,5.1,7.9s5.4-2.4,5.4-7.8v-19.7h14.3Z"/>
    <path class="st0" d="M83.9,54.9l6.5-8.8c3.4,3,6.8,4.4,9.8,4.4s3-.6,3-1.6-.6-1.6-5.4-3c-6.6-1.9-12.5-5.3-12.5-12.7s6.9-13.2,15-13.2,10.7,1.7,15.4,5l-6.6,9.5c-2.5-2.6-5.8-4.1-8.2-4.1s-2.5.5-2.5,1.6,1,1.5,4.9,2.8c8.9,2.8,13.3,5.4,13.3,13s-5.4,13-16.6,13-11.5-1.8-16-5.8Z"/>
    <path class="st0" d="M115.9,8.6c0-4.2,3.4-7.6,8.2-7.6s8.2,3.3,8.2,7.6-3.4,7.8-8.2,7.8-8.2-3.4-8.2-7.8ZM116.9,20.8h14.3v39.2h-14.3V20.8Z"/>
    <path class="st0" d="M173.1,36.3v23.7h-14.3v-20.2c0-5.6-1.6-7.1-5.1-7.1s-5.7,2.3-5.7,7.7v19.7h-14.3V20.8h14.3v4.3h0c2.9-3.4,6.9-5.1,11.1-5.1,7.9,0,13.9,3.6,13.9,16.3Z"/>
    <path class="st0" d="M213,43.9h-25.7c.6,3.8,3.9,5.6,8.1,5.6s6.3-1.5,9-4.3l7.4,8.2c-3.4,4.1-9.6,7.4-17.9,7.4s-20.6-8.3-20.6-20.4,8.5-20.4,20.3-20.4,19.7,8.3,19.7,20.1-.2,2.9-.3,3.8ZM187.3,36.1h12.2c-.6-3.4-2.9-5.3-5.9-5.3s-5.6,1.9-6.2,5.3Z"/>
    <path class="st0" d="M210.6,54.9l6.5-8.8c3.4,3,6.8,4.4,9.8,4.4s3-.6,3-1.6-.6-1.6-5.4-3c-6.6-1.9-12.5-5.3-12.5-12.7s6.9-13.2,15-13.2,10.7,1.7,15.4,5l-6.6,9.5c-2.5-2.6-5.8-4.1-8.2-4.1s-2.5.5-2.5,1.6,1,1.5,4.9,2.8c8.9,2.8,13.3,5.4,13.3,13s-5.4,13-16.6,13-11.5-1.8-16-5.8Z"/>
    <path class="st0" d="M240.4,54.9l6.5-8.8c3.4,3,6.8,4.4,9.8,4.4s3-.6,3-1.6-.6-1.6-5.4-3c-6.6-1.9-12.5-5.3-12.5-12.7s6.9-13.2,15-13.2,10.7,1.7,15.4,5l-6.6,9.5c-2.5-2.6-5.8-4.1-8.2-4.1s-2.5.5-2.5,1.6,1,1.5,4.9,2.8c8.9,2.8,13.3,5.4,13.3,13s-5.4,13-16.6,13-11.5-1.8-16-5.8Z"/>
  </g>
</svg>