<?xml version="1.0" encoding="UTF-8"?>
<svg id="Isolation_Mode" xmlns="http://www.w3.org/2000/svg" version="1.1" viewBox="0 0 255 56.9">
  <!-- Generator: Adobe Illustrator 29.4.0, SVG Export Plug-In . SVG Version: 2.1.0 Build 152)  -->
  <defs>
    <style>
      .st0 {
        fill: #2f1049;
      }

      .st1 {
        fill: none;
        stroke: #2f1049;
        stroke-miterlimit: 10;
      }
    </style>
  </defs>
  <g>
    <path class="st1" d="M222.8,26.9c.6,1.1,1.5,2,2.7,2.7,1.1.7,2.4,1,3.6,1,1.3,0,2.5-.3,3.6-1h0s13-7.5,13-7.5h0c1.1-.7,2-1.5,2.7-2.7.6-1.1,1-2.3,1-3.6,0-1.3-.3-2.5-1-3.6-.6-1.1-1.5-2-2.7-2.6h0l-13-7.5h0c-1.1-.7-2.3-1-3.6-1-1.3,0-2.5.3-3.6,1-1.1.7-2,1.5-2.7,2.6-.6,1.1-1,2.3-1,3.6v15c0,1.3.3,2.5,1,3.6"/>
    <path class="st1" d="M227.9,25.3c-.4-.2-.6-.5-.8-.8,0,0,0,0,0,0-.2-.3-.3-.7-.3-1.1v-15c0-.4.1-.8.3-1.1,0,0,0,0,0,0,.2-.4.5-.6.8-.8.4-.2.7-.3,1.2-.3.4,0,.8.1,1.1.3l13,7.5c.4.2.6.5.9.8,0,0,0,0,0,0,.2.4.3.7.3,1.1,0,.4-.1.8-.3,1.1h0c-.2.4-.5.6-.9.9l-13,7.5c-.4.2-.7.3-1.1.3-.4,0-.8-.1-1.2-.3"/>
  </g>
  <g>
    <path class="st0" d="M0,.1h37.8v13.5H14.7v8.6h18v13.2H14.7v8h24.7v13.5H0V.1Z"/>
    <path class="st0" d="M77.6,17.7l-15,39.2h-12.9l-15-39.2h14.8l6.6,22.3h0l6.5-22.3h14.9Z"/>
    <path class="st0" d="M112.2,40.8h-25.7c.6,3.8,3.9,5.6,8.1,5.6s6.3-1.5,9-4.3l7.4,8.2c-3.4,4.1-9.6,7.4-17.9,7.4s-20.6-8.3-20.6-20.4,8.5-20.4,20.3-20.4,19.7,8.3,19.7,20.1-.2,2.9-.3,3.8ZM86.6,33.1h12.2c-.6-3.4-2.9-5.3-5.9-5.3s-5.6,1.9-6.2,5.3Z"/>
    <path class="st0" d="M152.5,33.2v23.7h-14.3v-20.2c0-5.6-1.6-7.1-5.1-7.1s-5.7,2.3-5.7,7.7v19.7h-14.3V17.7h14.3v4.3h0c2.9-3.4,6.9-5.1,11.1-5.1,7.9,0,13.9,3.6,13.9,16.3Z"/>
    <path class="st0" d="M155.7,44.6v-15.5h-4.2v-11.4h4.2V5.4l14.3-1.4v13.8h8.5v11.4h-8.5v12.5c0,1.8.2,3.9,2.6,3.9s1.8-.2,2.9-.6l3.5,9.9c-3,1.7-5.8,2.9-11.5,2.9s-11.8-4.2-11.8-13.1Z"/>
    <path class="st0" d="M176.6,51.9l6.5-8.8c3.4,3,6.8,4.4,9.8,4.4s3-.6,3-1.6-.6-1.6-5.4-3c-6.6-1.9-12.5-5.3-12.5-12.7s6.9-13.2,15-13.2,10.7,1.7,15.4,5l-6.6,9.5c-2.5-2.6-5.8-4.1-8.2-4.1s-2.5.5-2.5,1.6,1,1.5,4.9,2.8c8.9,2.8,13.3,5.4,13.3,13s-5.4,13-16.6,13-11.5-1.8-16-5.8Z"/>
  </g>
</svg>