<?xml version="1.0" encoding="UTF-8"?>
<svg id="Layer_1" xmlns="http://www.w3.org/2000/svg" version="1.1" viewBox="0 0 530.2 99.2">
  <!-- Generator: Adobe Illustrator 29.4.0, SVG Export Plug-In . SVG Version: 2.1.0 Build 152)  -->
  <defs>
    <style>
      .st0 {
        fill: #fff;
      }

      .st1 {
        fill: #ec1260;
      }
    </style>
  </defs>
  <g id="Logo_Mark">
    <g>
      <path class="st1" d="M99.4,97.8c-8.5,0-16-4.4-20.3-11.7l-29.5-51h0c-4.2-7.3-4.2-16.1,0-23.4C53.9,4.4,61.5,0,69.9,0h58.9c8.5,0,16,4.4,20.3,11.7,4.2,7.3,4.2,16.1,0,23.4l-29.5,51c-4.2,7.3-11.8,11.7-20.3,11.7ZM57.8,30.4l29.5,51c2.5,4.4,7.1,7,12.2,7s9.6-2.6,12.2-7l29.5-51c2.5-4.4,2.5-9.6,0-14-2.5-4.4-7.1-7-12.2-7h-58.9c-5.1,0-9.6,2.6-12.2,7-2.5,4.4-2.5,9.6,0,14h0Z"/>
      <path class="st1" d="M52.9,97.8c-8.5,0-16-4.4-20.3-11.7L3.2,35.1c-4.2-7.3-4.2-16.1,0-23.4C7.4,4.4,15,0,23.4,0h58.9c8.5,0,16,4.4,20.3,11.7s4.2,16.1,0,23.4l-29.5,51c-4.2,7.3-11.8,11.7-20.3,11.7ZM23.4,9.4c-5.1,0-9.6,2.6-12.2,7s-2.5,9.6,0,14l29.5,51c2.5,4.4,7.1,7,12.2,7s9.6-2.6,12.2-7l29.5-51c2.5-4.4,2.5-9.6,0-14s-7.1-7-12.2-7H23.4Z"/>
    </g>
  </g>
  <g>
    <path class="st0" d="M275.2,13.3l-19.3,61.9h-15.1l-9.2-37.7h-.2l-9.7,37.7h-15.1l-19.3-61.9h17.7l9,34.5h.3l8.3-34.5h17.4l8.1,34.5h.3l9-34.5h17.7Z"/>
    <path class="st0" d="M308.8,57.7h-28c.7,4.1,4.3,6.1,8.8,6.1s6.9-1.7,9.9-4.7l8,8.9c-3.7,4.4-10.5,8.1-19.5,8.1s-22.4-9.1-22.4-22.2,9.2-22.2,22.1-22.2,21.4,9.1,21.4,21.9-.2,3.1-.3,4.2ZM280.8,49.3h13.2c-.7-3.7-3.1-5.8-6.5-5.8s-6.1,2.1-6.8,5.8Z"/>
    <path class="st0" d="M326.4,20.3h-18.6v-7h44.8v7h-18.7v54.9h-7.6V20.3Z"/>
    <path class="st0" d="M388.5,32.8v42.5h-6.8v-6.7h0c-3.4,4.5-8.6,7.2-14.8,7.2-11.8,0-20.8-8.5-20.8-21.4s8.7-22.1,20.7-22.1,11.1,2.4,14.6,6.9h0v-6.4h7.1ZM381.7,54.3c0-8.7-6-15.5-14.2-15.5s-14.4,6.1-14.4,15.5,5.7,15,14.3,15,14.3-6,14.3-15Z"/>
    <path class="st0" d="M418.3,32.3v7.8c-1,0-2.1-.2-2.8-.2-8,0-12.9,6.2-12.9,14.7v20.5h-7.1v-42.5h7.1v7.5h0c3.1-5.1,8.1-8,13.9-8s1.3,0,1.7,0Z"/>
    <path class="st0" d="M458.6,32.8v39.2c0,12.3-6,21-20.8,21s-12.2-1.6-17.3-4.6l1.7-6.5c5,2.8,9.2,4.4,15.3,4.4,9.6,0,14.3-5.6,14.3-12.5v-5.9h-.2c-3.3,4.1-8.3,6.5-14.4,6.5-11.3,0-20.6-8.4-20.6-21s8.7-21.2,20.2-21.2,11,2.3,14.6,6.5h.2v-5.9h7ZM451.9,53.1c0-8.5-6.2-14.2-14.2-14.2s-13.9,6.1-13.9,14.3,6.3,14.6,13.9,14.6,14.2-6.3,14.2-14.7Z"/>
    <path class="st0" d="M502.9,56.2h-32.7c1,7.9,6.5,13.1,14.2,13.1s9.3-2.4,11.9-5.8l5,4.3c-3.7,4.7-9.4,7.9-17.2,7.9-12,0-21.1-8.8-21.1-21.7s8.8-21.8,20.3-21.8,19.7,8.9,19.7,21.1-.2,2.6-.2,2.9ZM470.5,50.4h25.6c-1.1-7-5.6-11.6-12.4-11.6s-11.9,4.4-13.2,11.6Z"/>
    <path class="st0" d="M508.8,62.6v-23.7h-5.4v-6.1h5.4v-14.5l7.1-.8v15.3h14.1v6.1h-14.1v22.7c0,5.1,1.2,7.6,5.2,7.6s5.1-1,7.1-2.2l1.9,6.2c-2.4,1.3-5.3,2.6-10.3,2.6-7.6,0-11.1-4.6-11.1-13.2Z"/>
  </g>
  <g>
    <path class="st1" d="M222.4,86.7l-3,8.8h-1.4l-2-6.4h0l-2,6.4h-1.3l-3-8.8h1.5l2.2,6.6h0l2-6.6h1.3l2,6.6h0l2.2-6.6h1.5Z"/>
    <path class="st1" d="M233.1,91.6h-6.8c.2,1.6,1.4,2.7,2.9,2.7s1.9-.5,2.5-1.2l1,.9c-.8,1-1.9,1.6-3.5,1.6-2.5,0-4.4-1.8-4.4-4.5s1.8-4.5,4.2-4.5,4.1,1.8,4.1,4.4,0,.5,0,.6ZM226.4,90.3h5.3c-.2-1.4-1.2-2.4-2.6-2.4s-2.5.9-2.7,2.4Z"/>
    <path class="st1" d="M251.6,86.7v8.1c0,2.5-1.2,4.3-4.3,4.3s-2.5-.3-3.6-1l.3-1.4c1,.6,1.9.9,3.2.9,2,0,3-1.2,3-2.6v-1.2h0c-.7.8-1.7,1.4-3,1.4-2.3,0-4.2-1.7-4.2-4.3s1.8-4.4,4.2-4.4,2.3.5,3,1.3h0v-1.2h1.4ZM250.2,90.9c0-1.8-1.3-2.9-2.9-2.9s-2.9,1.3-2.9,3,1.3,3,2.9,3,2.9-1.3,2.9-3Z"/>
    <path class="st1" d="M263.5,91.6h-6.8c.2,1.6,1.4,2.7,2.9,2.7s1.9-.5,2.5-1.2l1,.9c-.8,1-1.9,1.6-3.5,1.6-2.5,0-4.4-1.8-4.4-4.5s1.8-4.5,4.2-4.5,4.1,1.8,4.1,4.4,0,.5,0,.6ZM256.8,90.3h5.3c-.2-1.4-1.2-2.4-2.6-2.4s-2.5.9-2.7,2.4Z"/>
    <path class="st1" d="M267.6,92.9v-4.9h-1.1v-1.3h1.1v-3l1.5-.2v3.2h2.9v1.3h-2.9v4.7c0,1,.3,1.6,1.1,1.6s1.1-.2,1.5-.5l.4,1.3c-.5.3-1.1.5-2.1.5-1.6,0-2.3-1-2.3-2.7Z"/>
    <path class="st1" d="M289.8,86.7l-5,12.3h-1.5l1.6-3.9-3.7-8.4h1.6l2.8,6.7h0l2.6-6.7h1.5Z"/>
    <path class="st1" d="M292.2,91.1c0-2.5,1.8-4.5,4.5-4.5s4.5,1.8,4.5,4.5-1.9,4.5-4.5,4.5-4.5-2-4.5-4.5ZM299.8,91.1c0-1.9-1.3-3.2-3-3.2s-3.1,1.4-3.1,3.2,1.2,3.2,3.1,3.2,3-1.3,3-3.2Z"/>
    <path class="st1" d="M312.5,86.7v8.8h-1.5v-1.5h0c-.7,1-1.7,1.6-2.9,1.6-2,0-3.3-1.2-3.3-3.7v-5.2h1.5v4.8c0,2,.7,2.7,2.1,2.7s2.6-1.2,2.6-3.3v-4.2h1.5Z"/>
    <path class="st1" d="M321.5,86.6v1.6c-.2,0-.4,0-.6,0-1.7,0-2.7,1.3-2.7,3v4.2h-1.5v-8.8h1.5v1.5h0c.6-1,1.7-1.7,2.9-1.7s.3,0,.4,0Z"/>
    <path class="st1" d="M340.2,91.2c0,2.7-1.9,4.4-4.3,4.4s-2.4-.6-3.1-1.5h0v1.4h-1.4v-13.3h1.5v5.8h0c.7-.9,1.8-1.4,3-1.4,2.5,0,4.3,2,4.3,4.6ZM338.7,91.2c0-1.9-1.3-3.2-3-3.2s-2.9,1.4-2.9,3.2,1.4,3.1,2.9,3.1,3-1.3,3-3.1Z"/>
    <path class="st1" d="M351.5,86.7v8.8h-1.5v-1.5h0c-.7,1-1.7,1.6-2.9,1.6-2,0-3.3-1.2-3.3-3.7v-5.2h1.5v4.8c0,2,.7,2.7,2.1,2.7s2.6-1.2,2.6-3.3v-4.2h1.5Z"/>
    <path class="st1" d="M355,94.3l.8-1.1c.7.6,1.4,1,2.7,1s1.7-.5,1.7-1.2-.8-1-2.1-1.4c-1.4-.5-2.6-1.1-2.6-2.7s1.2-2.4,2.9-2.4,2,.3,3,1.1l-.8,1.2c-.8-.7-1.6-.9-2.3-.9s-1.4.4-1.4,1,.7,1,1.7,1.4c1.9.7,3.1,1,3.1,2.8,0,1.4-1,2.5-3.1,2.5s-2.6-.5-3.4-1.3Z"/>
    <path class="st1" d="M365.2,84.1c0-.6.5-1,1-1s1,.5,1,1-.5,1-1,1-1-.5-1-1ZM365.5,86.7h1.5v8.8h-1.5v-8.8Z"/>
    <path class="st1" d="M379.3,90.3v5.2h-1.5v-4.8c0-2.1-.9-2.7-2.1-2.7s-2.8,1.2-2.8,3.2v4.4h-1.5v-8.8h1.5v1.5h0c.7-1,1.9-1.6,3.2-1.6,1.9,0,3.2,1.2,3.2,3.7Z"/>
    <path class="st1" d="M391.2,91.6h-6.8c.2,1.6,1.4,2.7,2.9,2.7s1.9-.5,2.5-1.2l1,.9c-.8,1-1.9,1.6-3.5,1.6-2.5,0-4.4-1.8-4.4-4.5s1.8-4.5,4.2-4.5,4.1,1.8,4.1,4.4,0,.5,0,.6ZM384.5,90.3h5.3c-.2-1.4-1.2-2.4-2.6-2.4s-2.5.9-2.7,2.4Z"/>
    <path class="st1" d="M394.3,94.3l.8-1.1c.7.6,1.4,1,2.7,1s1.7-.5,1.7-1.2-.8-1-2.1-1.4c-1.4-.5-2.6-1.1-2.6-2.7s1.2-2.4,2.9-2.4,2,.3,3,1.1l-.8,1.2c-.8-.7-1.6-.9-2.3-.9s-1.4.4-1.4,1,.7,1,1.7,1.4c1.9.7,3.1,1,3.1,2.8,0,1.4-1,2.5-3.1,2.5s-2.6-.5-3.4-1.3Z"/>
    <path class="st1" d="M403.8,94.3l.8-1.1c.7.6,1.4,1,2.7,1s1.7-.5,1.7-1.2-.8-1-2.1-1.4c-1.4-.5-2.6-1.1-2.6-2.7s1.2-2.4,2.9-2.4,2,.3,3,1.1l-.8,1.2c-.8-.7-1.6-.9-2.3-.9s-1.4.4-1.4,1,.7,1,1.7,1.4c1.9.7,3.1,1,3.1,2.8,0,1.4-1,2.5-3.1,2.5s-2.6-.5-3.4-1.3Z"/>
  </g>
</svg>