<?xml version="1.0" encoding="UTF-8"?>
<svg id="Layer_1" xmlns="http://www.w3.org/2000/svg" version="1.1" viewBox="0 0 530.2 97.8">
  <!-- Generator: Adobe Illustrator 29.4.0, SVG Export Plug-In . SVG Version: 2.1.0 Build 152)  -->
  <defs>
    <style>
      .st0 {
        fill: #fff;
      }
    </style>
  </defs>
  <g id="Logo_Mark">
    <g>
      <path class="st0" d="M99.4,97.8c-8.5,0-16-4.4-20.3-11.7l-29.5-51h0c-4.2-7.3-4.2-16.1,0-23.4C53.9,4.4,61.5,0,69.9,0h58.9c8.5,0,16,4.4,20.3,11.7,4.2,7.3,4.2,16.1,0,23.4l-29.5,51c-4.2,7.3-11.8,11.7-20.3,11.7ZM57.8,30.4l29.5,51c2.5,4.4,7.1,7,12.2,7s9.6-2.6,12.2-7l29.5-51c2.5-4.4,2.5-9.6,0-14-2.5-4.4-7.1-7-12.2-7h-58.9c-5.1,0-9.6,2.6-12.2,7-2.5,4.4-2.5,9.6,0,14h0Z"/>
      <path class="st0" d="M52.9,97.8c-8.5,0-16-4.4-20.3-11.7L3.2,35.1c-4.2-7.3-4.2-16.1,0-23.4C7.4,4.4,15,0,23.4,0h58.9c8.5,0,16,4.4,20.3,11.7s4.2,16.1,0,23.4l-29.5,51c-4.2,7.3-11.8,11.7-20.3,11.7ZM23.4,9.4c-5.1,0-9.6,2.6-12.2,7s-2.5,9.6,0,14l29.5,51c2.5,4.4,7.1,7,12.2,7s9.6-2.6,12.2-7l29.5-51c2.5-4.4,2.5-9.6,0-14s-7.1-7-12.2-7H23.4Z"/>
    </g>
  </g>
  <g>
    <path class="st0" d="M275.2,13.3l-19.3,61.9h-15.1l-9.2-37.7h-.2l-9.7,37.7h-15.1l-19.3-61.9h17.7l9,34.5h.3l8.3-34.5h17.4l8.1,34.5h.3l9-34.5h17.7Z"/>
    <path class="st0" d="M308.8,57.7h-28c.7,4.1,4.3,6.1,8.8,6.1s6.9-1.7,9.9-4.7l8,8.9c-3.7,4.4-10.5,8.1-19.5,8.1s-22.4-9.1-22.4-22.2,9.2-22.2,22.1-22.2,21.4,9.1,21.4,21.9-.2,3.1-.3,4.2ZM280.8,49.3h13.2c-.7-3.7-3.1-5.8-6.5-5.8s-6.1,2.1-6.8,5.8Z"/>
    <path class="st0" d="M326.4,20.3h-18.6v-7h44.8v7h-18.7v54.9h-7.6V20.3Z"/>
    <path class="st0" d="M388.5,32.8v42.5h-6.8v-6.7h0c-3.4,4.5-8.6,7.2-14.8,7.2-11.8,0-20.8-8.5-20.8-21.4s8.7-22.1,20.7-22.1,11.1,2.4,14.6,6.9h0v-6.4h7.1ZM381.7,54.3c0-8.7-6-15.5-14.2-15.5s-14.4,6.1-14.4,15.5,5.7,15,14.3,15,14.3-6,14.3-15Z"/>
    <path class="st0" d="M418.3,32.3v7.8c-1,0-2.1-.2-2.8-.2-8,0-12.9,6.2-12.9,14.7v20.5h-7.1v-42.5h7.1v7.5h0c3.1-5.1,8.1-8,13.9-8s1.3,0,1.7,0Z"/>
    <path class="st0" d="M458.6,32.8v39.2c0,12.3-6,21-20.8,21s-12.2-1.6-17.3-4.6l1.7-6.5c5,2.8,9.2,4.4,15.3,4.4,9.6,0,14.3-5.6,14.3-12.5v-5.9h-.2c-3.3,4.1-8.3,6.5-14.4,6.5-11.3,0-20.6-8.4-20.6-21s8.7-21.2,20.2-21.2,11,2.3,14.6,6.5h.2v-5.9h7ZM451.9,53.1c0-8.5-6.2-14.2-14.2-14.2s-13.9,6.1-13.9,14.3,6.3,14.6,13.9,14.6,14.2-6.3,14.2-14.7Z"/>
    <path class="st0" d="M502.9,56.2h-32.7c1,7.9,6.5,13.1,14.2,13.1s9.3-2.4,11.9-5.8l5,4.3c-3.7,4.7-9.4,7.9-17.2,7.9-12,0-21.1-8.8-21.1-21.7s8.8-21.8,20.3-21.8,19.7,8.9,19.7,21.1-.2,2.6-.2,2.9ZM470.5,50.4h25.6c-1.1-7-5.6-11.6-12.4-11.6s-11.9,4.4-13.2,11.6Z"/>
    <path class="st0" d="M508.8,62.6v-23.7h-5.4v-6.1h5.4v-14.5l7.1-.8v15.3h14.1v6.1h-14.1v22.7c0,5.1,1.2,7.6,5.2,7.6s5.1-1,7.1-2.2l1.9,6.2c-2.4,1.3-5.3,2.6-10.3,2.6-7.6,0-11.1-4.6-11.1-13.2Z"/>
  </g>
</svg>