<?xml version="1.0" encoding="UTF-8"?>
<svg id="Isolation_Mode" xmlns="http://www.w3.org/2000/svg" version="1.1" viewBox="0 0 255 75.8">
  <!-- Generator: Adobe Illustrator 29.4.0, SVG Export Plug-In . SVG Version: 2.1.0 Build 152)  -->
  <defs>
    <style>
      .st0 {
        fill: #eb125f;
      }

      .st1 {
        fill: none;
        stroke: #eb125f;
        stroke-miterlimit: 10;
      }
    </style>
  </defs>
  <path class="st1" d="M227.5,26.9c.6,1.1,1.5,2,2.7,2.7,1.1.7,2.4,1,3.6,1,1.3,0,2.5-.3,3.6-1h0s13-7.5,13-7.5h0c1.1-.7,2-1.5,2.7-2.7.6-1.1,1-2.3,1-3.6,0-1.3-.3-2.5-1-3.6-.6-1.1-1.5-2-2.7-2.6h0l-13-7.5h0c-1.1-.7-2.3-1-3.6-1-1.3,0-2.5.3-3.6,1-1.1.7-2,1.5-2.7,2.6-.6,1.1-1,2.3-1,3.6v15c0,1.3.3,2.5,1,3.6"/>
  <path class="st1" d="M232.6,25.3c-.4-.2-.6-.5-.8-.8,0,0,0,0,0,0-.2-.3-.3-.7-.3-1.1v-15c0-.4.1-.8.3-1.1,0,0,0,0,0,0,.2-.4.5-.6.8-.8.4-.2.7-.3,1.2-.3.4,0,.8.1,1.1.3l13,7.5c.4.2.6.5.9.8,0,0,0,0,0,0,.2.4.3.7.3,1.1,0,.4-.1.8-.3,1.1h0c-.2.4-.5.6-.9.9l-13,7.5c-.4.2-.7.3-1.1.3-.4,0-.8-.1-1.2-.3"/>
  <g>
    <path class="st0" d="M-.7,3.2h22.1c14.2,0,20.6,8.5,20.6,20.2s-8.5,19.3-21.6,19.3h-6.4v17.4H-.7V3.2ZM18,29.5c4.9,0,8.2-2.2,8.2-6.5s-2.7-6.5-8.2-6.5h-4v13h4Z"/>
    <path class="st0" d="M78.8,43.9h-25.7c.6,3.8,3.9,5.6,8.1,5.6s6.3-1.5,9-4.3l7.4,8.2c-3.4,4.1-9.6,7.4-17.9,7.4s-20.6-8.3-20.6-20.4,8.5-20.4,20.3-20.4,19.7,8.3,19.7,20.1-.2,2.9-.3,3.8ZM53.1,36.1h12.2c-.6-3.4-2.9-5.3-5.9-5.3s-5.6,1.9-6.2,5.3Z"/>
    <path class="st0" d="M77.6,40.4c0-12.1,8.8-20.4,21.5-20.4s21.4,8.3,21.4,20.4-8.9,20.4-21.4,20.4-21.5-8.3-21.5-20.4ZM106.2,40.4c0-4.6-2.9-7.8-7-7.8s-7.1,3.2-7.1,7.8,3,7.8,7.1,7.8,7-3.3,7-7.8Z"/>
    <path class="st0" d="M163.4,40.4c0,12.1-7.5,20.4-18.2,20.4s-7.4-1.5-9.8-4.2h0v19.3h-14.2V20.8h14.3v4h0c2.7-3.2,6.5-4.8,10.6-4.8,9.8,0,17.4,8.3,17.4,20.4ZM149,40.4c0-4.6-3-7.8-7-7.8s-7.3,3.2-7.3,7.8,3,7.9,7.3,7.9,7-3.1,7-7.9Z"/>
    <path class="st0" d="M164.2,1.1h14.3v58.9h-14.3V1.1Z"/>
    <path class="st0" d="M218.8,43.9h-25.7c.6,3.8,3.9,5.6,8.1,5.6s6.3-1.5,9-4.3l7.4,8.2c-3.4,4.1-9.6,7.4-17.9,7.4s-20.6-8.3-20.6-20.4,8.5-20.4,20.3-20.4,19.7,8.3,19.7,20.1-.2,2.9-.3,3.8ZM193.2,36.1h12.2c-.6-3.4-2.9-5.3-5.9-5.3s-5.6,1.9-6.2,5.3Z"/>
  </g>
</svg>