<?xml version="1.0" encoding="UTF-8"?>
<svg id="Layer_1" xmlns="http://www.w3.org/2000/svg" version="1.1" viewBox="0 0 1271.5 1148.3">
  <!-- Generator: Adobe Illustrator 29.5.1, SVG Export Plug-In . SVG Version: 2.1.0 Build 141)  -->
  <defs>
    <style>
      .bl {
        fill: none;
        stroke: #fff;
        stroke-miterlimit: 10;
      }
    </style>
  </defs>
  <path class="bl" d="M655.8,1118.5c1.1,4.4,3.3,8.1,6.4,11.3,3.2,3.2,6.9,5.3,11.3,6.4,4.4,1.2,8.7,1.2,13,0,4.2-1.1,8-3.3,11.2-6.5l44.7-44.7c3.2-3.2,5.4-7,6.5-11.2,1.1-4.3,1.1-8.6,0-13-1.1-4.4-3.3-8.1-6.4-11.3-3.2-3.2-6.9-5.3-11.3-6.4l-61-16.4c-4.4-1.1-8.7-1.1-13,0-4.3,1.2-8.1,3.4-11.2,6.5-3.2,3.2-5.4,6.9-6.6,11.2-1.1,4.3-1.1,8.6,0,13l16.4,61"/>
  <path class="bl" d="M889.1,1069.1c-1-3.8-2.9-7.1-5.6-9.9s-6.1-4.6-9.9-5.6l-53.4-14.3c-3.8-1-7.6-1-11.4,0-3.8,1-7,2.9-9.8,5.7s-4.7,6.1-5.7,9.8c-1,3.8-1,7.5,0,11.4l14.3,53.4c1,3.8,2.9,7.1,5.6,9.9,2.8,2.8,6.1,4.6,9.9,5.6,3.8,1,7.6,1,11.4,0,3.7-.9,7-2.8,9.8-5.7l39.1-39.1c2.8-2.8,4.7-6.1,5.7-9.8,1-3.7,1-7.5,0-11.4"/>
  <path class="bl" d="M852.9,1004.1c-.9,3.2-.8,6.4,0,9.7.9,3.3,2.5,6.1,4.8,8.5s5.2,4,8.5,4.8l45.7,12.3c3.3.9,6.5.9,9.7,0,3.2-.9,6-2.5,8.4-4.9s4-5.2,4.9-8.4c.8-3.2.8-6.5,0-9.7l-12.3-45.7c-.9-3.3-2.5-6.1-4.8-8.5s-5.2-4-8.5-4.8c-3.3-.9-6.5-.9-9.7,0-3.2.8-6,2.4-8.4,4.9l-33.5,33.5c-2.4,2.4-4.1,5.2-4.9,8.4"/>
  <path class="bl" d="M740.9,947.7l-39.1,39.1c-2.8,2.8-4.7,6.1-5.7,9.8-1,3.7-1,7.5,0,11.4,1,3.8,2.9,7.1,5.6,9.9,2.8,2.8,6.1,4.6,9.9,5.6l53.4,14.3c3.8,1,7.6,1,11.4,0,3.8-1,7-2.9,9.8-5.7,2.8-2.8,4.7-6.1,5.7-9.8,1-3.8,1-7.5,0-11.4l-14.3-53.4c-1-3.8-2.9-7.1-5.6-9.9s-6.1-4.6-9.9-5.6c-3.8-1-7.6-1-11.4,0-3.7.9-7,2.8-9.8,5.7"/>
  <path class="bl" d="M869,913.4c-2.4-2.4-5.2-4-8.5-4.8l-45.7-12.3c-3.3-.9-6.5-.9-9.7,0-3.2.9-6,2.5-8.4,4.9-2.4,2.4-4,5.2-4.9,8.4-.8,3.2-.8,6.5,0,9.7l12.3,45.7c.9,3.3,2.5,6.1,4.8,8.5,2.4,2.4,5.2,4,8.5,4.8,3.3.9,6.5.9,9.7,0,3.2-.8,6-2.4,8.4-4.9l33.5-33.5c2.4-2.4,4.1-5.2,4.9-8.4.9-3.2.8-6.4,0-9.7-.9-3.3-2.5-6.1-4.8-8.5"/>
  <path class="bl" d="M854.1,864.1c.7,2.7,2.1,5.1,4,7.1s4.3,3.3,7.1,4l38.1,10.2c2.7.7,5.4.7,8.1,0,2.7-.7,5-2.1,7-4.1s3.4-4.3,4.1-7c.7-2.7.7-5.4,0-8.1l-10.2-38.1c-.7-2.7-2.1-5.1-4-7.1s-4.3-3.3-7.1-4c-2.7-.7-5.5-.7-8.1,0-2.6.7-5,2-7,4.1l-27.9,27.9c-2,2-3.4,4.4-4.1,7-.7,2.7-.7,5.4,0,8.1"/>
  <path class="bl" d="M794.2,757.3c-2,2-3.4,4.3-4.1,7-.7,2.7-.7,5.4,0,8.1l10.2,38.1c.7,2.7,2.1,5.1,4,7.1s4.3,3.3,7.1,4c2.7.7,5.5.7,8.1,0,2.6-.7,5-2,7-4.1l27.9-27.9c2-2,3.4-4.4,4.1-7,.7-2.7.7-5.4,0-8.1-.7-2.7-2.1-5.1-4-7.1s-4.3-3.3-7.1-4l-38.1-10.2c-2.7-.7-5.4-.7-8.1,0-2.7.7-5,2.1-7,4.1"/>
  <path class="bl" d="M697.3,848.5c-.9,3.2-.8,6.4,0,9.7.9,3.3,2.5,6.1,4.8,8.5,2.4,2.4,5.2,4,8.5,4.8l45.7,12.3c3.3.9,6.5.9,9.7,0,3.2-.9,6-2.5,8.4-4.9s4-5.2,4.9-8.4c.8-3.2.8-6.5,0-9.7l-12.3-45.7c-.9-3.3-2.5-6.1-4.8-8.5-2.4-2.4-5.2-4-8.5-4.8-3.3-.9-6.5-.9-9.7,0-3.2.8-6,2.4-8.4,4.9l-33.5,33.5c-2.4,2.4-4.1,5.2-4.9,8.4"/>
  <path class="bl" d="M641.1,745.6c-2.4,2.4-4,5.2-4.9,8.4-.8,3.2-.8,6.5,0,9.7l12.3,45.7c.9,3.3,2.5,6.1,4.8,8.5,2.4,2.4,5.2,4,8.5,4.8,3.3.9,6.5.9,9.7,0,3.2-.8,6-2.4,8.4-4.9l33.5-33.5c2.4-2.4,4.1-5.2,4.9-8.4.9-3.2.8-6.4,0-9.7-.9-3.3-2.5-6.1-4.8-8.5-2.4-2.4-5.2-4-8.5-4.8l-45.7-12.3c-3.3-.9-6.5-.9-9.7,0-3.2.9-6,2.5-8.4,4.9"/>
  <path class="bl" d="M638.7,601.7c-2,2-3.4,4.3-4.1,7-.7,2.7-.7,5.4,0,8.1l10.2,38.1c.7,2.7,2.1,5.1,4,7.1s4.3,3.3,7.1,4c2.7.7,5.5.7,8.1,0,2.6-.7,5-2,7-4.1l27.9-27.9c2-2,3.4-4.4,4.1-7,.7-2.7.7-5.4,0-8.1-.7-2.7-2.1-5.1-4-7.1s-4.3-3.3-7.1-4l-38.1-10.2c-2.7-.7-5.4-.7-8.1,0-2.7.7-5,2.1-7,4.1"/>
  <path class="bl" d="M588.5,646.2c-3.2.8-6,2.4-8.4,4.9l-33.5,33.5c-2.4,2.4-4.1,5.2-4.9,8.4-.9,3.2-.8,6.4,0,9.7.9,3.3,2.5,6.1,4.8,8.5s5.2,4,8.5,4.8l45.7,12.3c3.3.9,6.5.9,9.7,0,3.2-.9,6-2.5,8.4-4.9,2.4-2.4,4-5.2,4.9-8.4.8-3.2.8-6.5,0-9.7l-12.3-45.7c-.9-3.3-2.5-6.1-4.8-8.5-2.4-2.4-5.2-4-8.5-4.8-3.3-.9-6.5-.9-9.7,0"/>
  <path class="bl" d="M562.7,610.7c-.9-3.3-2.5-6.1-4.8-8.5-2.4-2.4-5.2-4-8.5-4.8l-45.7-12.3c-3.3-.9-6.5-.9-9.7,0-3.2.9-6,2.5-8.4,4.9-2.4,2.4-4,5.2-4.9,8.4-.8,3.2-.8,6.5,0,9.7l12.3,45.7c.9,3.3,2.5,6.1,4.8,8.5,2.4,2.4,5.2,4,8.5,4.8,3.3.9,6.5.9,9.7,0,3.2-.8,6-2.4,8.4-4.9l33.5-33.5c2.4-2.4,4.1-5.2,4.9-8.4.9-3.2.8-6.4,0-9.7"/>
  <path class="bl" d="M539.4,989.1c-1.1,4.3-1.1,8.6,0,13,1.1,4.4,3.3,8.1,6.4,11.3,3.2,3.2,6.9,5.3,11.3,6.4l61,16.4c4.4,1.1,8.7,1.1,13,0,4.3-1.2,8.1-3.4,11.2-6.5,3.2-3.2,5.4-6.9,6.6-11.2,1.1-4.3,1.1-8.6,0-13l-16.4-61c-1.1-4.4-3.3-8.1-6.4-11.3-3.2-3.2-6.9-5.3-11.3-6.4-4.4-1.2-8.7-1.2-13,0-4.2,1.1-8,3.3-11.2,6.5l-44.7,44.7c-3.2,3.2-5.4,7-6.5,11.2"/>
  <path class="bl" d="M540.6,852.4c1,3.8,2.9,7.1,5.6,9.9,2.8,2.8,6.1,4.6,9.9,5.6l53.4,14.3c3.8,1,7.6,1,11.4,0,3.8-1,7-2.9,9.8-5.7,2.8-2.8,4.7-6.1,5.7-9.8,1-3.8,1-7.5,0-11.4l-14.3-53.4c-1-3.8-2.9-7.1-5.6-9.9s-6.1-4.6-9.9-5.6c-3.8-1-7.6-1-11.4,0-3.7.9-7,2.8-9.8,5.7l-39.1,39.1c-2.8,2.8-4.7,6.1-5.7,9.8-1,3.7-1,7.5,0,11.4"/>
  <path class="bl" d="M490.4,877.7c-3.2,3.2-5.4,6.9-6.6,11.2-1.1,4.3-1.1,8.6,0,13l16.4,61c1.1,4.4,3.3,8.1,6.4,11.3,3.2,3.2,6.9,5.3,11.3,6.4,4.4,1.2,8.7,1.2,13,0,4.2-1.1,8-3.3,11.2-6.5l44.7-44.7c3.2-3.2,5.4-7,6.5-11.2,1.1-4.3,1.1-8.6,0-13-1.1-4.4-3.3-8.1-6.4-11.3-3.2-3.2-6.9-5.3-11.3-6.4l-61-16.4c-4.4-1.1-8.7-1.1-13,0-4.3,1.2-8.1,3.4-11.2,6.5"/>
  <path class="bl" d="M496.6,808.4c1,3.8,2.9,7.1,5.6,9.9,2.8,2.8,6.1,4.6,9.9,5.6,3.8,1,7.6,1,11.4,0,3.7-.9,7-2.8,9.8-5.7l39.1-39.1c2.8-2.8,4.7-6.1,5.7-9.8,1-3.7,1-7.5,0-11.4-1-3.8-2.9-7.1-5.6-9.9s-6.1-4.6-9.9-5.6l-53.4-14.3c-3.8-1-7.6-1-11.4,0-3.8,1-7,2.9-9.8,5.7s-4.7,6.1-5.7,9.8c-1,3.8-1,7.5,0,11.4l14.3,53.4"/>
  <path class="bl" d="M390.3,857.8c3.2,3.2,6.9,5.3,11.3,6.4l61,16.4c4.4,1.1,8.7,1.1,13,0,4.3-1.2,8.1-3.4,11.2-6.5,3.2-3.2,5.4-6.9,6.6-11.2,1.1-4.3,1.1-8.6,0-13l-16.4-61c-1.1-4.4-3.3-8.1-6.4-11.3-3.2-3.2-6.9-5.3-11.3-6.4-4.4-1.2-8.7-1.2-13,0-4.2,1.1-8,3.3-11.2,6.5l-44.7,44.7c-3.2,3.2-5.4,7-6.5,11.2-1.1,4.3-1.1,8.6,0,13,1.1,4.4,3.3,8.1,6.4,11.3"/>
  <path class="bl" d="M385,685.4c-1,3.7-1,7.5,0,11.4,1,3.8,2.9,7.1,5.6,9.9,2.8,2.8,6.1,4.6,9.9,5.6l53.4,14.3c3.8,1,7.6,1,11.4,0,3.8-1,7-2.9,9.8-5.7s4.7-6.1,5.7-9.8c1-3.8,1-7.5,0-11.4l-14.3-53.4c-1-3.8-2.9-7.1-5.6-9.9-2.8-2.8-6.1-4.6-9.9-5.6-3.8-1-7.6-1-11.4,0-3.7.9-7,2.8-9.8,5.7l-39.1,39.1c-2.8,2.8-4.7,6.1-5.7,9.8"/>
  <path class="bl" d="M359,715.7c-4.4-1.1-8.7-1.1-13,0-4.3,1.2-8.1,3.4-11.2,6.5-3.2,3.2-5.4,6.9-6.6,11.2-1.1,4.3-1.1,8.6,0,13l16.4,61c1.1,4.4,3.3,8.1,6.4,11.3,3.2,3.2,6.9,5.3,11.3,6.4,4.4,1.2,8.7,1.2,13,0,4.2-1.1,8-3.3,11.2-6.5l44.7-44.7c3.2-3.2,5.4-7,6.5-11.2,1.1-4.3,1.1-8.6,0-13-1.1-4.4-3.3-8.1-6.4-11.3-3.2-3.2-6.9-5.3-11.3-6.4l-61-16.4"/>
  <path class="bl" d="M234.8,666.7c-3.2,3.2-5.4,7-6.5,11.2-1.1,4.3-1.1,8.6,0,13,1.1,4.4,3.3,8.1,6.4,11.3,3.2,3.2,6.9,5.3,11.3,6.4l61,16.4c4.4,1.1,8.7,1.1,13,0,4.3-1.2,8.1-3.4,11.2-6.5,3.2-3.2,5.4-6.9,6.6-11.2,1.1-4.3,1.1-8.6,0-13l-16.4-61c-1.1-4.4-3.3-8.1-6.4-11.3-3.2-3.2-6.9-5.3-11.3-6.4-4.4-1.2-8.7-1.2-13,0-4.2,1.1-8,3.3-11.2,6.5l-44.7,44.7"/>
  <path class="bl" d="M179.3,566.6c-3.2,3.2-5.4,6.9-6.6,11.2-1.1,4.3-1.1,8.6,0,13l16.4,61c1.1,4.4,3.3,8.1,6.4,11.3,3.2,3.2,6.9,5.3,11.3,6.4,4.4,1.2,8.7,1.2,13,0,4.2-1.1,8-3.3,11.2-6.5l44.7-44.7c3.2-3.2,5.4-7,6.5-11.2,1.1-4.3,1.1-8.6,0-13-1.1-4.4-3.3-8.1-6.4-11.3-3.2-3.2-6.9-5.3-11.3-6.4l-61-16.4c-4.4-1.1-8.7-1.1-13,0-4.3,1.2-8.1,3.4-11.2,6.5"/>
  <path class="bl" d="M72.8,535.4c1.1,4.4,3.3,8.1,6.4,11.3,3.2,3.2,6.9,5.3,11.3,6.4l61,16.4c4.4,1.1,8.7,1.1,13,0,4.3-1.2,8.1-3.4,11.2-6.5,3.2-3.2,5.4-6.9,6.6-11.2,1.1-4.3,1.1-8.6,0-13l-16.4-61c-1.1-4.4-3.3-8.1-6.4-11.3-3.2-3.2-6.9-5.3-11.3-6.4-4.4-1.2-8.7-1.2-13,0-4.2,1.1-8,3.3-11.2,6.5l-44.7,44.7c-3.2,3.2-5.4,7-6.5,11.2-1.1,4.3-1.1,8.6,0,13"/>
  <path class="bl" d="M47.9,404.5c-4.4-1.1-8.7-1.1-13,0-4.3,1.2-8.1,3.4-11.2,6.5-3.2,3.2-5.4,6.9-6.6,11.2-1.1,4.3-1.1,8.6,0,13l16.4,61c1.1,4.4,3.3,8.1,6.4,11.3,3.2,3.2,6.9,5.3,11.3,6.4,4.4,1.2,8.7,1.2,13,0,4.2-1.1,8-3.3,11.2-6.5l44.7-44.7c3.2-3.2,5.4-7,6.5-11.2,1.1-4.3,1.1-8.6,0-13-1.1-4.4-3.3-8.1-6.4-11.3-3.2-3.2-6.9-5.3-11.3-6.4l-61-16.4"/>
  <path class="bl" d="M483.1,446.1c-2,2-3.4,4.3-4.1,7-.7,2.7-.7,5.4,0,8.1l10.2,38.1c.7,2.7,2.1,5.1,4,7.1s4.3,3.3,7.1,4c2.7.7,5.5.7,8.1,0,2.6-.7,5-2,7-4.1l27.9-27.9c2-2,3.4-4.4,4.1-7,.7-2.7.7-5.4,0-8.1-.7-2.7-2.1-5.1-4-7.1s-4.3-3.3-7.1-4l-38.1-10.2c-2.7-.7-5.4-.7-8.1,0-2.7.7-5,2.1-7,4.1"/>
  <path class="bl" d="M426.3,350.3c-2.6.7-5,2-7,4.1l-27.9,27.9c-2,2-3.4,4.4-4.1,7-.7,2.7-.7,5.4,0,8.1.7,2.7,2.1,5.1,4,7.1s4.3,3.3,7.1,4l38.1,10.2c2.7.7,5.4.7,8.1,0,2.7-.7,5-2.1,7-4.1s3.4-4.3,4.1-7c.7-2.7.7-5.4,0-8.1l-10.2-38.1c-.7-2.7-2.1-5.1-4-7.1-2-2-4.3-3.3-7.1-4-2.7-.7-5.5-.7-8.1,0"/>
  <path class="bl" d="M332.4,578.3c-2.8,2.8-4.7,6.1-5.7,9.8-1,3.8-1,7.5,0,11.4l14.3,53.4c1,3.8,2.9,7.1,5.6,9.9s6.1,4.6,9.9,5.6c3.8,1,7.6,1,11.4,0,3.7-.9,7-2.8,9.8-5.7l39.1-39.1c2.8-2.8,4.7-6.1,5.7-9.8,1-3.7,1-7.5,0-11.4-1-3.8-2.9-7.1-5.6-9.9s-6.1-4.6-9.9-5.6l-53.4-14.3c-3.8-1-7.6-1-11.4,0-3.8,1-7,2.9-9.8,5.7"/>
  <path class="bl" d="M330,434.4c-2.4,2.4-4,5.2-4.9,8.4-.8,3.2-.8,6.5,0,9.7l12.3,45.7c.9,3.3,2.5,6.1,4.8,8.5s5.2,4,8.5,4.8c3.3.9,6.5.9,9.7,0,3.2-.8,6-2.4,8.4-4.9l33.5-33.5c2.4-2.4,4.1-5.2,4.9-8.4.9-3.2.8-6.4,0-9.7-.9-3.3-2.5-6.1-4.8-8.5s-5.2-4-8.5-4.8l-45.7-12.3c-3.3-.9-6.5-.9-9.7,0-3.2.9-6,2.5-8.4,4.9"/>
  <path class="bl" d="M198,417.1c-3.8-1-7.6-1-11.4,0-3.8,1-7,2.9-9.8,5.7-2.8,2.8-4.7,6.1-5.7,9.8-1,3.8-1,7.5,0,11.4l14.3,53.4c1,3.8,2.9,7.1,5.6,9.9s6.1,4.6,9.9,5.6c3.8,1,7.6,1,11.4,0,3.7-.9,7-2.8,9.8-5.7l39.1-39.1c2.8-2.8,4.7-6.1,5.7-9.8,1-3.7,1-7.5,0-11.4-1-3.8-2.9-7.1-5.6-9.9s-6.1-4.6-9.9-5.6l-53.4-14.3"/>
  <path class="bl" d="M277.4,335c-3.2.8-6,2.4-8.4,4.9l-33.5,33.5c-2.4,2.4-4.1,5.2-4.9,8.4-.9,3.2-.8,6.4,0,9.7.9,3.3,2.5,6.1,4.8,8.5s5.2,4,8.5,4.8l45.7,12.3c3.3.9,6.5.9,9.7,0,3.2-.9,6-2.5,8.4-4.9s4-5.2,4.9-8.4c.8-3.2.8-6.5,0-9.7l-12.3-45.7c-.9-3.3-2.5-6.1-4.8-8.5s-5.2-4-8.5-4.8c-3.3-.9-6.5-.9-9.7,0"/>
  <path class="bl" d="M327.5,290.6c-2,2-3.4,4.3-4.1,7-.7,2.7-.7,5.4,0,8.1l10.2,38.1c.7,2.7,2.1,5.1,4,7.1s4.3,3.3,7.1,4c2.7.7,5.5.7,8.1,0,2.6-.7,5-2,7-4.1l27.9-27.9c2-2,3.4-4.4,4.1-7,.7-2.7.7-5.4,0-8.1-.7-2.7-2.1-5.1-4-7.1s-4.3-3.3-7.1-4l-38.1-10.2c-2.7-.7-5.4-.7-8.1,0-2.7.7-5,2.1-7,4.1"/>
  <path class="bl" d="M251.6,299.6c-.9-3.3-2.5-6.1-4.8-8.5s-5.2-4-8.5-4.8l-45.7-12.3c-3.3-.9-6.5-.9-9.7,0-3.2.9-6,2.5-8.4,4.9-2.4,2.4-4,5.2-4.9,8.4-.8,3.2-.8,6.5,0,9.7l12.3,45.7c.9,3.3,2.5,6.1,4.8,8.5,2.4,2.4,5.2,4,8.5,4.8,3.3.9,6.5.9,9.7,0,3.2-.8,6-2.4,8.4-4.9l33.5-33.5c2.4-2.4,4.1-5.2,4.9-8.4.9-3.2.8-6.4,0-9.7"/>
  <path class="bl" d="M290,205.9c-.7-2.7-2.1-5.1-4-7.1s-4.3-3.3-7.1-4c-2.7-.7-5.5-.7-8.1,0-2.6.7-5,2-7,4.1l-27.9,27.9c-2,2-3.4,4.4-4.1,7-.7,2.7-.7,5.4,0,8.1.7,2.7,2.1,5.1,4,7.1,2,2,4.3,3.3,7.1,4l38.1,10.2c2.7.7,5.4.7,8.1,0,2.7-.7,5-2.1,7-4.1,2-2,3.4-4.3,4.1-7,.7-2.7.7-5.4,0-8.1l-10.2-38.1"/>
  <path class="bl" d="M1041.9,832.3c-2.1.5-4,1.6-5.6,3.3l-22.3,22.3c-1.6,1.6-2.7,3.5-3.3,5.6-.6,2.1-.6,4.3,0,6.5.6,2.2,1.6,4.1,3.2,5.6s3.5,2.7,5.6,3.2l30.5,8.2c2.2.6,4.3.6,6.5,0,2.2-.6,4-1.7,5.6-3.3s2.7-3.5,3.3-5.6c.6-2.1.5-4.3,0-6.5l-8.2-30.5c-.6-2.2-1.6-4.1-3.2-5.6s-3.5-2.7-5.6-3.2c-2.2-.6-4.4-.6-6.5,0"/>
  <path class="bl" d="M1044.4,694.5c-1.2-1.2-2.6-2-4.2-2.4-1.6-.4-3.3-.4-4.9,0-1.6.4-3,1.2-4.2,2.4l-16.7,16.7c-1.2,1.2-2,2.6-2.4,4.2-.4,1.6-.4,3.2,0,4.9.4,1.6,1.2,3,2.4,4.2s2.6,2,4.2,2.4l22.9,6.1c1.6.4,3.3.4,4.9,0,1.6-.4,3-1.3,4.2-2.4s2-2.6,2.5-4.2c.4-1.6.4-3.2,0-4.9l-6.1-22.9c-.4-1.6-1.2-3-2.4-4.2"/>
  <path class="bl" d="M1104.1,635.2c-1.1-.3-2.2-.3-3.2,0-1.1.3-2,.8-2.8,1.6s-1.3,1.7-1.6,2.8c-.3,1.1-.3,2.2,0,3.2l4.1,15.2c.3,1.1.8,2,1.6,2.8.8.8,1.7,1.3,2.8,1.6,1.1.3,2.2.3,3.2,0,1.1-.3,2-.8,2.8-1.6l11.2-11.2c.8-.8,1.4-1.7,1.6-2.8.3-1.1.3-2.1,0-3.2-.3-1.1-.8-2-1.6-2.8s-1.7-1.3-2.8-1.6l-15.2-4.1"/>
  <path class="bl" d="M1254.2,647.7c-.5-.1-1.1-.1-1.6,0-.5.1-1,.4-1.4.8s-.7.9-.8,1.4c-.1.5-.1,1.1,0,1.6l2,7.6c.1.5.4,1,.8,1.4.4.4.9.7,1.4.8.5.1,1.1.1,1.6,0,.5-.1,1-.4,1.4-.8l5.6-5.6c.4-.4.7-.9.8-1.4.1-.5.1-1.1,0-1.6-.1-.5-.4-1-.8-1.4s-.9-.7-1.4-.8l-7.6-2"/>
  <path class="bl" d="M1094.8,494.4c-.1.5-.1,1.1,0,1.6l2,7.6c.1.5.4,1,.8,1.4.4.4.9.7,1.4.8.5.1,1.1.1,1.6,0,.5-.1,1-.4,1.4-.8l5.6-5.6c.4-.4.7-.9.8-1.4.1-.5.1-1.1,0-1.6-.1-.5-.4-1-.8-1.4s-.9-.7-1.4-.8l-7.6-2c-.5-.1-1.1-.1-1.6,0-.5.1-1,.4-1.4.8s-.7.9-.8,1.4"/>
  <path class="bl" d="M942.5,481.3c-.8.8-1.3,1.7-1.6,2.8-.3,1.1-.3,2.2,0,3.2l4.1,15.2c.3,1.1.8,2,1.6,2.8.8.8,1.7,1.3,2.8,1.6,1.1.3,2.2.3,3.2,0,1.1-.3,2-.8,2.8-1.6l11.2-11.2c.8-.8,1.4-1.7,1.6-2.8.3-1.1.3-2.1,0-3.2-.3-1.1-.8-2-1.6-2.8s-1.7-1.3-2.8-1.6l-15.2-4.1c-1.1-.3-2.2-.3-3.2,0-1.1.3-2,.8-2.8,1.6"/>
  <path class="bl" d="M944.9,625.1c-1.2,1.2-2,2.6-2.5,4.2-.4,1.6-.4,3.2,0,4.9l6.1,22.9c.4,1.6,1.2,3,2.4,4.2s2.6,2,4.2,2.4c1.6.4,3.3.4,4.9,0,1.6-.4,3-1.2,4.2-2.4l16.7-16.7c1.2-1.2,2-2.6,2.4-4.2.4-1.6.4-3.2,0-4.9-.4-1.6-1.2-3-2.4-4.2s-2.6-2-4.2-2.4l-22.9-6.1c-1.6-.4-3.3-.4-4.9,0-1.6.4-3,1.3-4.2,2.4"/>
  <path class="bl" d="M791.8,613.4c-1.6,1.6-2.7,3.5-3.3,5.6-.6,2.1-.5,4.3,0,6.5l8.2,30.5c.6,2.2,1.6,4.1,3.2,5.6s3.5,2.7,5.6,3.2c2.2.6,4.4.6,6.5,0,2.1-.5,4-1.6,5.6-3.3l22.3-22.3c1.6-1.6,2.7-3.5,3.3-5.6.6-2.1.6-4.3,0-6.5-.6-2.2-1.6-4.1-3.2-5.6s-3.5-2.7-5.6-3.2l-30.5-8.2c-2.2-.6-4.3-.6-6.5,0-2.2.6-4,1.7-5.6,3.3"/>
  <path class="bl" d="M789.3,469.6c-1.2,1.2-2,2.6-2.5,4.2-.4,1.6-.4,3.2,0,4.9l6.1,22.9c.4,1.6,1.2,3,2.4,4.2s2.6,2,4.2,2.4c1.6.4,3.3.4,4.9,0,1.6-.4,3-1.2,4.2-2.4l16.7-16.7c1.2-1.2,2-2.6,2.4-4.2.4-1.6.4-3.2,0-4.9-.4-1.6-1.2-3-2.4-4.2s-2.6-2-4.2-2.4l-22.9-6.1c-1.6-.4-3.3-.4-4.9,0-1.6.4-3,1.3-4.2,2.4"/>
  <path class="bl" d="M730.8,521.2c-2.1.5-4,1.6-5.6,3.3l-22.3,22.3c-1.6,1.6-2.7,3.5-3.3,5.6-.6,2.1-.6,4.3,0,6.5.6,2.2,1.6,4.1,3.2,5.6,1.6,1.6,3.5,2.7,5.6,3.2l30.5,8.2c2.2.6,4.3.6,6.5,0,2.2-.6,4-1.7,5.6-3.3s2.7-3.5,3.3-5.6c.6-2.1.5-4.3,0-6.5l-8.2-30.5c-.6-2.2-1.6-4.1-3.2-5.6-1.6-1.6-3.5-2.7-5.6-3.2-2.2-.6-4.4-.6-6.5,0"/>
  <path class="bl" d="M648.3,454.6c-2.2-.6-4.3-.6-6.5,0-2.2.6-4,1.7-5.6,3.3-1.6,1.6-2.7,3.5-3.3,5.6-.6,2.1-.5,4.3,0,6.5l8.2,30.5c.6,2.2,1.6,4.1,3.2,5.6,1.6,1.6,3.5,2.7,5.6,3.2,2.2.6,4.4.6,6.5,0,2.1-.5,4-1.6,5.6-3.3l22.3-22.3c1.6-1.6,2.7-3.5,3.3-5.6.6-2.1.6-4.3,0-6.5-.6-2.2-1.6-4.1-3.2-5.6-1.6-1.6-3.5-2.7-5.6-3.2l-30.5-8.2"/>
  <path class="bl" d="M857.5,411.9c-.3,1.1-.3,2.1,0,3.2.3,1.1.8,2,1.6,2.8s1.7,1.3,2.8,1.6l15.2,4.1c1.1.3,2.2.3,3.2,0,1.1-.3,2-.8,2.8-1.6s1.3-1.7,1.6-2.8c.3-1.1.3-2.2,0-3.2l-4.1-15.2c-.3-1.1-.8-2-1.6-2.8-.8-.8-1.7-1.3-2.8-1.6-1.1-.3-2.2-.3-3.2,0-1.1.3-2,.8-2.8,1.6l-11.2,11.2c-.8.8-1.4,1.7-1.6,2.8"/>
  <path class="bl" d="M735.7,387.6c-.4-1.6-1.2-3-2.4-4.2-1.2-1.2-2.6-2-4.2-2.4-1.6-.4-3.3-.4-4.9,0-1.6.4-3,1.2-4.2,2.4l-16.7,16.7c-1.2,1.2-2,2.6-2.4,4.2-.4,1.6-.4,3.2,0,4.9.4,1.6,1.2,3,2.4,4.2,1.2,1.2,2.6,2,4.2,2.4l22.9,6.1c1.6.4,3.3.4,4.9,0,1.6-.4,3-1.3,4.2-2.4s2-2.6,2.5-4.2c.4-1.6.4-3.2,0-4.9l-6.1-22.9"/>
  <path class="bl" d="M703.6,253.5c-.8.8-1.4,1.7-1.6,2.8-.3,1.1-.3,2.1,0,3.2.3,1.1.8,2,1.6,2.8s1.7,1.3,2.8,1.6l15.2,4.1c1.1.3,2.2.3,3.2,0,1.1-.3,2-.8,2.8-1.6.8-.8,1.3-1.7,1.6-2.8.3-1.1.3-2.2,0-3.2l-4.1-15.2c-.3-1.1-.8-2-1.6-2.8-.8-.8-1.7-1.3-2.8-1.6-1.1-.3-2.2-.3-3.2,0-1.1.3-2,.8-2.8,1.6l-11.2,11.2"/>
  <path class="bl" d="M575.3,365.7c-2.1.5-4,1.6-5.6,3.3l-22.3,22.3c-1.6,1.6-2.7,3.5-3.3,5.6-.6,2.1-.6,4.3,0,6.5.6,2.2,1.6,4.1,3.2,5.6,1.6,1.6,3.5,2.7,5.6,3.2l30.5,8.2c2.2.6,4.3.6,6.5,0,2.2-.6,4-1.7,5.6-3.3,1.6-1.6,2.7-3.5,3.3-5.6.6-2.1.5-4.3,0-6.5l-8.2-30.5c-.6-2.2-1.6-4.1-3.2-5.6-1.6-1.6-3.5-2.7-5.6-3.2-2.2-.6-4.4-.6-6.5,0"/>
  <path class="bl" d="M480.6,302.3c-1.6,1.6-2.7,3.5-3.3,5.6-.6,2.1-.5,4.3,0,6.5l8.2,30.5c.6,2.2,1.6,4.1,3.2,5.6,1.6,1.6,3.5,2.7,5.6,3.2,2.2.6,4.4.6,6.5,0,2.1-.5,4-1.6,5.6-3.3l22.3-22.3c1.6-1.6,2.7-3.5,3.3-5.6.6-2.1.6-4.3,0-6.5-.6-2.2-1.6-4.1-3.2-5.6-1.6-1.6-3.5-2.7-5.6-3.2l-30.5-8.2c-2.2-.6-4.3-.6-6.5,0-2.2.6-4,1.7-5.6,3.3"/>
  <path class="bl" d="M568.6,225.4c-1.6.4-3,1.2-4.2,2.4l-16.7,16.7c-1.2,1.2-2,2.6-2.4,4.2-.4,1.6-.4,3.2,0,4.9.4,1.6,1.2,3,2.4,4.2s2.6,2,4.2,2.4l22.9,6.1c1.6.4,3.3.4,4.9,0,1.6-.4,3-1.3,4.2-2.4s2-2.6,2.5-4.2c.4-1.6.4-3.2,0-4.9l-6.1-22.9c-.4-1.6-1.2-3-2.4-4.2-1.2-1.2-2.6-2-4.2-2.4-1.6-.4-3.3-.4-4.9,0"/>
  <path class="bl" d="M419.7,210.1c-2.1.5-4,1.6-5.6,3.3l-22.3,22.3c-1.6,1.6-2.7,3.5-3.3,5.6-.6,2.1-.6,4.3,0,6.5.6,2.2,1.6,4.1,3.2,5.6,1.6,1.6,3.5,2.7,5.6,3.2l30.5,8.2c2.2.6,4.3.6,6.5,0,2.2-.6,4-1.7,5.6-3.3s2.7-3.5,3.3-5.6c.6-2.1.5-4.3,0-6.5l-8.2-30.5c-.6-2.2-1.6-4.1-3.2-5.6s-3.5-2.7-5.6-3.2c-2.2-.6-4.4-.6-6.5,0"/>
  <path class="bl" d="M514.4,164.5c-1.2-1.2-2.6-2-4.2-2.4l-22.9-6.1c-1.6-.4-3.3-.4-4.9,0-1.6.4-3,1.3-4.2,2.4-1.2,1.2-2,2.6-2.5,4.2-.4,1.6-.4,3.2,0,4.9l6.1,22.9c.4,1.6,1.2,3,2.4,4.2s2.6,2,4.2,2.4c1.6.4,3.3.4,4.9,0,1.6-.4,3-1.2,4.2-2.4l16.7-16.7c1.2-1.2,2-2.6,2.4-4.2.4-1.6.4-3.2,0-4.9-.4-1.6-1.2-3-2.4-4.2"/>
  <path class="bl" d="M546.4,100.7c-.3,1.1-.3,2.1,0,3.2.3,1.1.8,2,1.6,2.8s1.7,1.3,2.8,1.6l15.2,4.1c1.1.3,2.2.3,3.2,0,1.1-.3,2-.8,2.8-1.6s1.3-1.7,1.6-2.8c.3-1.1.3-2.2,0-3.2l-4.1-15.2c-.3-1.1-.8-2-1.6-2.8-.8-.8-1.7-1.3-2.8-1.6-1.1-.3-2.2-.3-3.2,0-1.1.3-2,.8-2.8,1.6l-11.2,11.2c-.8.8-1.4,1.7-1.6,2.8"/>
  <path class="bl" d="M501.5,21.5c-.3-1.1-.8-2-1.6-2.8s-1.7-1.3-2.8-1.6l-15.2-4.1c-1.1-.3-2.2-.3-3.2,0-1.1.3-2,.8-2.8,1.6s-1.3,1.7-1.6,2.8c-.3,1.1-.3,2.2,0,3.2l4.1,15.2c.3,1.1.8,2,1.6,2.8.8.8,1.7,1.3,2.8,1.6,1.1.3,2.2.3,3.2,0,1.1-.3,2-.8,2.8-1.6l11.2-11.2c.8-.8,1.4-1.7,1.6-2.8.3-1.1.3-2.1,0-3.2"/>
  <path class="bl" d="M787.5,181c-.5-.1-1.1-.1-1.6,0-.5.1-1,.4-1.4.8s-.7.9-.8,1.4c-.1.5-.1,1.1,0,1.6l2,7.6c.1.5.4,1,.8,1.4.4.4.9.7,1.4.8.5.1,1.1.1,1.6,0,.5-.1,1-.4,1.4-.8l5.6-5.6c.4-.4.7-.9.8-1.4.1-.5.1-1.1,0-1.6-.1-.5-.4-1-.8-1.4s-.9-.7-1.4-.8l-7.6-2"/>
  <path class="bl" d="M710.9,100.5c-.5.1-1,.4-1.4.8l-5.6,5.6c-.4.4-.7.9-.8,1.4-.1.5-.1,1.1,0,1.6.1.5.4,1,.8,1.4s.9.7,1.4.8l7.6,2c.5.1,1.1.1,1.6,0,.5-.1,1-.4,1.4-.8s.7-.9.8-1.4c.1-.5.1-1.1,0-1.6l-2-7.6c-.1-.5-.4-1-.8-1.4-.4-.4-.9-.7-1.4-.8-.5-.1-1.1-.1-1.6,0"/>
</svg>