<?xml version="1.0" encoding="UTF-8"?>
<svg id="Layer_1" xmlns="http://www.w3.org/2000/svg" version="1.1" viewBox="0 0 1271.5 1282.9">
  <!-- Generator: Adobe Illustrator 29.5.1, SVG Export Plug-In . SVG Version: 2.1.0 Build 141)  -->
  <defs>
    <style>
      .blr {
        fill: none;
        stroke: #251348;
        stroke-miterlimit: 10;
      }
    </style>
  </defs>
  <path class="blr" d="M1191.1,627c4.4-1.1,8.1-3.3,11.3-6.4,3.2-3.2,5.3-6.9,6.4-11.3,1.2-4.4,1.2-8.7,0-13-1.1-4.2-3.3-8-6.5-11.2l-44.7-44.7c-3.2-3.2-7-5.4-11.2-6.5-4.3-1.1-8.6-1.1-13,0-4.4,1.1-8.1,3.3-11.3,6.4-3.2,3.2-5.3,6.9-6.4,11.3l-16.4,61c-1.1,4.4-1.1,8.7,0,13,1.2,4.3,3.4,8.1,6.5,11.2,3.2,3.2,6.9,5.4,11.2,6.6,4.3,1.1,8.6,1.1,13,0l61-16.4"/>
  <path class="blr" d="M1141.7,393.7c-3.8,1-7.1,2.9-9.9,5.6s-4.6,6.1-5.6,9.9l-14.3,53.4c-1,3.8-1,7.6,0,11.4,1,3.8,2.9,7,5.7,9.8s6.1,4.7,9.8,5.7c3.8,1,7.5,1,11.4,0l53.4-14.3c3.8-1,7.1-2.9,9.9-5.6,2.8-2.8,4.6-6.1,5.6-9.9,1-3.8,1-7.6,0-11.4-.9-3.7-2.8-7-5.7-9.8l-39.1-39.1c-2.8-2.8-6.1-4.7-9.8-5.7-3.7-1-7.5-1-11.4,0"/>
  <path class="blr" d="M1076.7,429.9c3.2.9,6.4.8,9.7,0,3.3-.9,6.1-2.5,8.5-4.8s4-5.2,4.8-8.5l12.3-45.7c.9-3.3.9-6.5,0-9.7-.9-3.2-2.5-6-4.9-8.4s-5.2-4-8.4-4.9c-3.2-.8-6.5-.8-9.7,0l-45.7,12.3c-3.3.9-6.1,2.5-8.5,4.8s-4,5.2-4.8,8.5c-.9,3.3-.9,6.5,0,9.7.8,3.2,2.4,6,4.9,8.4l33.5,33.5c2.4,2.4,5.2,4.1,8.4,4.9"/>
  <path class="blr" d="M1020.3,541.9l39.1,39.1c2.8,2.8,6.1,4.7,9.8,5.7,3.7,1,7.5,1,11.4,0,3.8-1,7.1-2.9,9.9-5.6,2.8-2.8,4.6-6.1,5.6-9.9l14.3-53.4c1-3.8,1-7.6,0-11.4-1-3.8-2.9-7-5.7-9.8-2.8-2.8-6.1-4.7-9.8-5.7-3.8-1-7.5-1-11.4,0l-53.4,14.3c-3.8,1-7.1,2.9-9.9,5.6s-4.6,6.1-5.6,9.9c-1,3.8-1,7.6,0,11.4.9,3.7,2.8,7,5.7,9.8"/>
  <path class="blr" d="M986,413.8c-2.4,2.4-4,5.2-4.8,8.5l-12.3,45.7c-.9,3.3-.9,6.5,0,9.7.9,3.2,2.5,6,4.9,8.4,2.4,2.4,5.2,4,8.4,4.9,3.2.8,6.5.8,9.7,0l45.7-12.3c3.3-.9,6.1-2.5,8.5-4.8,2.4-2.4,4-5.2,4.8-8.5.9-3.3.9-6.5,0-9.7-.8-3.2-2.4-6-4.9-8.4l-33.5-33.5c-2.4-2.4-5.2-4.1-8.4-4.9-3.2-.9-6.4-.8-9.7,0-3.3.9-6.1,2.5-8.5,4.8"/>
  <path class="blr" d="M936.7,428.8c2.7-.7,5.1-2.1,7.1-4s3.3-4.3,4-7.1l10.2-38.1c.7-2.7.7-5.4,0-8.1-.7-2.7-2.1-5-4.1-7s-4.3-3.4-7-4.1c-2.7-.7-5.4-.7-8.1,0l-38.1,10.2c-2.7.7-5.1,2.1-7.1,4s-3.3,4.3-4,7.1c-.7,2.7-.7,5.5,0,8.1.7,2.6,2,5,4.1,7l27.9,27.9c2,2,4.4,3.4,7,4.1,2.7.7,5.4.7,8.1,0"/>
  <path class="blr" d="M829.9,488.6c2,2,4.3,3.4,7,4.1,2.7.7,5.4.7,8.1,0l38.1-10.2c2.7-.7,5.1-2.1,7.1-4s3.3-4.3,4-7.1c.7-2.7.7-5.5,0-8.1-.7-2.6-2-5-4.1-7l-27.9-27.9c-2-2-4.4-3.4-7-4.1-2.7-.7-5.4-.7-8.1,0-2.7.7-5.1,2.1-7.1,4s-3.3,4.3-4,7.1l-10.2,38.1c-.7,2.7-.7,5.4,0,8.1.7,2.7,2.1,5,4.1,7"/>
  <path class="blr" d="M921.1,585.5c3.2.9,6.4.8,9.7,0,3.3-.9,6.1-2.5,8.5-4.8,2.4-2.4,4-5.2,4.8-8.5l12.3-45.7c.9-3.3.9-6.5,0-9.7-.9-3.2-2.5-6-4.9-8.4s-5.2-4-8.4-4.9c-3.2-.8-6.5-.8-9.7,0l-45.7,12.3c-3.3.9-6.1,2.5-8.5,4.8-2.4,2.4-4,5.2-4.8,8.5-.9,3.3-.9,6.5,0,9.7.8,3.2,2.4,6,4.9,8.4l33.5,33.5c2.4,2.4,5.2,4.1,8.4,4.9"/>
  <path class="blr" d="M818.2,641.7c2.4,2.4,5.2,4,8.4,4.9,3.2.8,6.5.8,9.7,0l45.7-12.3c3.3-.9,6.1-2.5,8.5-4.8,2.4-2.4,4-5.2,4.8-8.5.9-3.3.9-6.5,0-9.7-.8-3.2-2.4-6-4.9-8.4l-33.5-33.5c-2.4-2.4-5.2-4.1-8.4-4.9-3.2-.9-6.4-.8-9.7,0-3.3.9-6.1,2.5-8.5,4.8-2.4,2.4-4,5.2-4.8,8.5l-12.3,45.7c-.9,3.3-.9,6.5,0,9.7.9,3.2,2.5,6,4.9,8.4"/>
  <path class="blr" d="M674.3,644.2c2,2,4.3,3.4,7,4.1,2.7.7,5.4.7,8.1,0l38.1-10.2c2.7-.7,5.1-2.1,7.1-4s3.3-4.3,4-7.1c.7-2.7.7-5.5,0-8.1-.7-2.6-2-5-4.1-7l-27.9-27.9c-2-2-4.4-3.4-7-4.1-2.7-.7-5.4-.7-8.1,0-2.7.7-5.1,2.1-7.1,4s-3.3,4.3-4,7.1l-10.2,38.1c-.7,2.7-.7,5.4,0,8.1.7,2.7,2.1,5,4.1,7"/>
  <path class="blr" d="M718.8,694.3c.8,3.2,2.4,6,4.9,8.4l33.5,33.5c2.4,2.4,5.2,4.1,8.4,4.9,3.2.9,6.4.8,9.7,0,3.3-.9,6.1-2.5,8.5-4.8s4-5.2,4.8-8.5l12.3-45.7c.9-3.3.9-6.5,0-9.7-.9-3.2-2.5-6-4.9-8.4-2.4-2.4-5.2-4-8.4-4.9-3.2-.8-6.5-.8-9.7,0l-45.7,12.3c-3.3.9-6.1,2.5-8.5,4.8-2.4,2.4-4,5.2-4.8,8.5-.9,3.3-.9,6.5,0,9.7"/>
  <path class="blr" d="M683.3,720.1c-3.3.9-6.1,2.5-8.5,4.8-2.4,2.4-4,5.2-4.8,8.5l-12.3,45.7c-.9,3.3-.9,6.5,0,9.7.9,3.2,2.5,6,4.9,8.4,2.4,2.4,5.2,4,8.4,4.9,3.2.8,6.5.8,9.7,0l45.7-12.3c3.3-.9,6.1-2.5,8.5-4.8,2.4-2.4,4-5.2,4.8-8.5.9-3.3.9-6.5,0-9.7-.8-3.2-2.4-6-4.9-8.4l-33.5-33.5c-2.4-2.4-5.2-4.1-8.4-4.9-3.2-.9-6.4-.8-9.7,0"/>
  <path class="blr" d="M1061.6,743.4c4.3,1.1,8.6,1.1,13,0,4.4-1.1,8.1-3.3,11.3-6.4,3.2-3.2,5.3-6.9,6.4-11.3l16.4-61c1.1-4.4,1.1-8.7,0-13-1.2-4.3-3.4-8.1-6.5-11.2-3.2-3.2-6.9-5.4-11.2-6.6-4.3-1.1-8.6-1.1-13,0l-61,16.4c-4.4,1.1-8.1,3.3-11.3,6.4-3.2,3.2-5.3,6.9-6.4,11.3-1.2,4.4-1.2,8.7,0,13,1.1,4.2,3.3,8,6.5,11.2l44.7,44.7c3.2,3.2,7,5.4,11.2,6.5"/>
  <path class="blr" d="M925,742.2c3.8-1,7.1-2.9,9.9-5.6,2.8-2.8,4.6-6.1,5.6-9.9l14.3-53.4c1-3.8,1-7.6,0-11.4-1-3.8-2.9-7-5.7-9.8-2.8-2.8-6.1-4.7-9.8-5.7-3.8-1-7.5-1-11.4,0l-53.4,14.3c-3.8,1-7.1,2.9-9.9,5.6s-4.6,6.1-5.6,9.9c-1,3.8-1,7.6,0,11.4.9,3.7,2.8,7,5.7,9.8l39.1,39.1c2.8,2.8,6.1,4.7,9.8,5.7,3.7,1,7.5,1,11.4,0"/>
  <path class="blr" d="M950.3,792.4c3.2,3.2,6.9,5.4,11.2,6.6,4.3,1.1,8.6,1.1,13,0l61-16.4c4.4-1.1,8.1-3.3,11.3-6.4,3.2-3.2,5.3-6.9,6.4-11.3,1.2-4.4,1.2-8.7,0-13-1.1-4.2-3.3-8-6.5-11.2l-44.7-44.7c-3.2-3.2-7-5.4-11.2-6.5-4.3-1.1-8.6-1.1-13,0-4.4,1.1-8.1,3.3-11.3,6.4-3.2,3.2-5.3,6.9-6.4,11.3l-16.4,61c-1.1,4.4-1.1,8.7,0,13,1.2,4.3,3.4,8.1,6.5,11.2"/>
  <path class="blr" d="M881,786.2c3.8-1,7.1-2.9,9.9-5.6,2.8-2.8,4.6-6.1,5.6-9.9,1-3.8,1-7.6,0-11.4-.9-3.7-2.8-7-5.7-9.8l-39.1-39.1c-2.8-2.8-6.1-4.7-9.8-5.7-3.7-1-7.5-1-11.4,0-3.8,1-7.1,2.9-9.9,5.6s-4.6,6.1-5.6,9.9l-14.3,53.4c-1,3.8-1,7.6,0,11.4,1,3.8,2.9,7,5.7,9.8s6.1,4.7,9.8,5.7c3.8,1,7.5,1,11.4,0l53.4-14.3"/>
  <path class="blr" d="M930.4,892.5c3.2-3.2,5.3-6.9,6.4-11.3l16.4-61c1.1-4.4,1.1-8.7,0-13-1.2-4.3-3.4-8.1-6.5-11.2-3.2-3.2-6.9-5.4-11.2-6.6-4.3-1.1-8.6-1.1-13,0l-61,16.4c-4.4,1.1-8.1,3.3-11.3,6.4-3.2,3.2-5.3,6.9-6.4,11.3-1.2,4.4-1.2,8.7,0,13,1.1,4.2,3.3,8,6.5,11.2l44.7,44.7c3.2,3.2,7,5.4,11.2,6.5,4.3,1.1,8.6,1.1,13,0,4.4-1.1,8.1-3.3,11.3-6.4"/>
  <path class="blr" d="M758,897.8c3.7,1,7.5,1,11.4,0,3.8-1,7.1-2.9,9.9-5.6,2.8-2.8,4.6-6.1,5.6-9.9l14.3-53.4c1-3.8,1-7.6,0-11.4-1-3.8-2.9-7-5.7-9.8s-6.1-4.7-9.8-5.7c-3.8-1-7.5-1-11.4,0l-53.4,14.3c-3.8,1-7.1,2.9-9.9,5.6-2.8,2.8-4.6,6.1-5.6,9.9-1,3.8-1,7.6,0,11.4.9,3.7,2.8,7,5.7,9.8l39.1,39.1c2.8,2.8,6.1,4.7,9.8,5.7"/>
  <path class="blr" d="M788.3,923.8c-1.1,4.4-1.1,8.7,0,13,1.2,4.3,3.4,8.1,6.5,11.2,3.2,3.2,6.9,5.4,11.2,6.6,4.3,1.1,8.6,1.1,13,0l61-16.4c4.4-1.1,8.1-3.3,11.3-6.4,3.2-3.2,5.3-6.9,6.4-11.3,1.2-4.4,1.2-8.7,0-13-1.1-4.2-3.3-8-6.5-11.2l-44.7-44.7c-3.2-3.2-7-5.4-11.2-6.5-4.3-1.1-8.6-1.1-13,0-4.4,1.1-8.1,3.3-11.3,6.4-3.2,3.2-5.3,6.9-6.4,11.3l-16.4,61"/>
  <path class="blr" d="M739.3,1048c3.2,3.2,7,5.4,11.2,6.5,4.3,1.1,8.6,1.1,13,0,4.4-1.1,8.1-3.3,11.3-6.4,3.2-3.2,5.3-6.9,6.4-11.3l16.4-61c1.1-4.4,1.1-8.7,0-13-1.2-4.3-3.4-8.1-6.5-11.2-3.2-3.2-6.9-5.4-11.2-6.6-4.3-1.1-8.6-1.1-13,0l-61,16.4c-4.4,1.1-8.1,3.3-11.3,6.4-3.2,3.2-5.3,6.9-6.4,11.3-1.2,4.4-1.2,8.7,0,13,1.1,4.2,3.3,8,6.5,11.2l44.7,44.7"/>
  <path class="blr" d="M639.2,1103.5c3.2,3.2,6.9,5.4,11.2,6.6,4.3,1.1,8.6,1.1,13,0l61-16.4c4.4-1.1,8.1-3.3,11.3-6.4,3.2-3.2,5.3-6.9,6.4-11.3,1.2-4.4,1.2-8.7,0-13-1.1-4.2-3.3-8-6.5-11.2l-44.7-44.7c-3.2-3.2-7-5.4-11.2-6.5-4.3-1.1-8.6-1.1-13,0-4.4,1.1-8.1,3.3-11.3,6.4-3.2,3.2-5.3,6.9-6.4,11.3l-16.4,61c-1.1,4.4-1.1,8.7,0,13,1.2,4.3,3.4,8.1,6.5,11.2"/>
  <path class="blr" d="M607.9,1210.1c4.4-1.1,8.1-3.3,11.3-6.4,3.2-3.2,5.3-6.9,6.4-11.3l16.4-61c1.1-4.4,1.1-8.7,0-13-1.2-4.3-3.4-8.1-6.5-11.2-3.2-3.2-6.9-5.4-11.2-6.6-4.3-1.1-8.6-1.1-13,0l-61,16.4c-4.4,1.1-8.1,3.3-11.3,6.4-3.2,3.2-5.3,6.9-6.4,11.3-1.2,4.4-1.2,8.7,0,13,1.1,4.2,3.3,8,6.5,11.2l44.7,44.7c3.2,3.2,7,5.4,11.2,6.5,4.3,1.1,8.6,1.1,13,0"/>
  <path class="blr" d="M477.1,1234.9c-1.1,4.4-1.1,8.7,0,13,1.2,4.3,3.4,8.1,6.5,11.2,3.2,3.2,6.9,5.4,11.2,6.6,4.3,1.1,8.6,1.1,13,0l61-16.4c4.4-1.1,8.1-3.3,11.3-6.4,3.2-3.2,5.3-6.9,6.4-11.3,1.2-4.4,1.2-8.7,0-13-1.1-4.2-3.3-8-6.5-11.2l-44.7-44.7c-3.2-3.2-7-5.4-11.2-6.5-4.3-1.1-8.6-1.1-13,0-4.4,1.1-8.1,3.3-11.3,6.4-3.2,3.2-5.3,6.9-6.4,11.3l-16.4,61"/>
  <path class="blr" d="M518.7,799.7c2,2,4.3,3.4,7,4.1,2.7.7,5.4.7,8.1,0l38.1-10.2c2.7-.7,5.1-2.1,7.1-4s3.3-4.3,4-7.1c.7-2.7.7-5.5,0-8.1-.7-2.6-2-5-4.1-7l-27.9-27.9c-2-2-4.4-3.4-7-4.1-2.7-.7-5.4-.7-8.1,0-2.7.7-5.1,2.1-7.1,4s-3.3,4.3-4,7.1l-10.2,38.1c-.7,2.7-.7,5.4,0,8.1.7,2.7,2.1,5,4.1,7"/>
  <path class="blr" d="M422.9,856.5c.7,2.6,2,5,4.1,7l27.9,27.9c2,2,4.4,3.4,7,4.1,2.7.7,5.4.7,8.1,0,2.7-.7,5.1-2.1,7.1-4s3.3-4.3,4-7.1l10.2-38.1c.7-2.7.7-5.4,0-8.1-.7-2.7-2.1-5-4.1-7s-4.3-3.4-7-4.1c-2.7-.7-5.4-.7-8.1,0l-38.1,10.2c-2.7.7-5.1,2.1-7.1,4-2,2-3.3,4.3-4,7.1-.7,2.7-.7,5.5,0,8.1"/>
  <path class="blr" d="M650.9,950.4c2.8,2.8,6.1,4.7,9.8,5.7,3.8,1,7.5,1,11.4,0l53.4-14.3c3.8-1,7.1-2.9,9.9-5.6s4.6-6.1,5.6-9.9c1-3.8,1-7.6,0-11.4-.9-3.7-2.8-7-5.7-9.8l-39.1-39.1c-2.8-2.8-6.1-4.7-9.8-5.7-3.7-1-7.5-1-11.4,0-3.8,1-7.1,2.9-9.9,5.6s-4.6,6.1-5.6,9.9l-14.3,53.4c-1,3.8-1,7.6,0,11.4,1,3.8,2.9,7,5.7,9.8"/>
  <path class="blr" d="M507,952.8c2.4,2.4,5.2,4,8.4,4.9,3.2.8,6.5.8,9.7,0l45.7-12.3c3.3-.9,6.1-2.5,8.5-4.8s4-5.2,4.8-8.5c.9-3.3.9-6.5,0-9.7-.8-3.2-2.4-6-4.9-8.4l-33.5-33.5c-2.4-2.4-5.2-4.1-8.4-4.9-3.2-.9-6.4-.8-9.7,0-3.3.9-6.1,2.5-8.5,4.8s-4,5.2-4.8,8.5l-12.3,45.7c-.9,3.3-.9,6.5,0,9.7.9,3.2,2.5,6,4.9,8.4"/>
  <path class="blr" d="M489.7,1084.8c-1,3.8-1,7.6,0,11.4,1,3.8,2.9,7,5.7,9.8,2.8,2.8,6.1,4.7,9.8,5.7,3.8,1,7.5,1,11.4,0l53.4-14.3c3.8-1,7.1-2.9,9.9-5.6s4.6-6.1,5.6-9.9c1-3.8,1-7.6,0-11.4-.9-3.7-2.8-7-5.7-9.8l-39.1-39.1c-2.8-2.8-6.1-4.7-9.8-5.7-3.7-1-7.5-1-11.4,0-3.8,1-7.1,2.9-9.9,5.6s-4.6,6.1-5.6,9.9l-14.3,53.4"/>
  <path class="blr" d="M407.6,1005.4c.8,3.2,2.4,6,4.9,8.4l33.5,33.5c2.4,2.4,5.2,4.1,8.4,4.9,3.2.9,6.4.8,9.7,0,3.3-.9,6.1-2.5,8.5-4.8s4-5.2,4.8-8.5l12.3-45.7c.9-3.3.9-6.5,0-9.7-.9-3.2-2.5-6-4.9-8.4s-5.2-4-8.4-4.9c-3.2-.8-6.5-.8-9.7,0l-45.7,12.3c-3.3.9-6.1,2.5-8.5,4.8s-4,5.2-4.8,8.5c-.9,3.3-.9,6.5,0,9.7"/>
  <path class="blr" d="M363.2,955.3c2,2,4.3,3.4,7,4.1,2.7.7,5.4.7,8.1,0l38.1-10.2c2.7-.7,5.1-2.1,7.1-4s3.3-4.3,4-7.1c.7-2.7.7-5.5,0-8.1-.7-2.6-2-5-4.1-7l-27.9-27.9c-2-2-4.4-3.4-7-4.1-2.7-.7-5.4-.7-8.1,0-2.7.7-5.1,2.1-7.1,4s-3.3,4.3-4,7.1l-10.2,38.1c-.7,2.7-.7,5.4,0,8.1.7,2.7,2.1,5,4.1,7"/>
  <path class="blr" d="M372.2,1031.2c-3.3.9-6.1,2.5-8.5,4.8s-4,5.2-4.8,8.5l-12.3,45.7c-.9,3.3-.9,6.5,0,9.7.9,3.2,2.5,6,4.9,8.4,2.4,2.4,5.2,4,8.4,4.9,3.2.8,6.5.8,9.7,0l45.7-12.3c3.3-.9,6.1-2.5,8.5-4.8,2.4-2.4,4-5.2,4.8-8.5.9-3.3.9-6.5,0-9.7-.8-3.2-2.4-6-4.9-8.4l-33.5-33.5c-2.4-2.4-5.2-4.1-8.4-4.9-3.2-.9-6.4-.8-9.7,0"/>
  <path class="blr" d="M278.5,992.9c-2.7.7-5.1,2.1-7.1,4s-3.3,4.3-4,7.1c-.7,2.7-.7,5.5,0,8.1.7,2.6,2,5,4.1,7l27.9,27.9c2,2,4.4,3.4,7,4.1,2.7.7,5.4.7,8.1,0,2.7-.7,5.1-2.1,7.1-4,2-2,3.3-4.3,4-7.1l10.2-38.1c.7-2.7.7-5.4,0-8.1-.7-2.7-2.1-5-4.1-7-2-2-4.3-3.4-7-4.1-2.7-.7-5.4-.7-8.1,0l-38.1,10.2"/>
  <path class="blr" d="M904.9,240.9c.5,2.1,1.6,4,3.3,5.6l22.3,22.3c1.6,1.6,3.5,2.7,5.6,3.3,2.1.6,4.3.6,6.5,0,2.2-.6,4.1-1.6,5.6-3.2s2.7-3.5,3.2-5.6l8.2-30.5c.6-2.2.6-4.3,0-6.5-.6-2.2-1.7-4-3.3-5.6s-3.5-2.7-5.6-3.3c-2.1-.6-4.3-.5-6.5,0l-30.5,8.2c-2.2.6-4.1,1.6-5.6,3.2s-2.7,3.5-3.2,5.6c-.6,2.2-.6,4.4,0,6.5"/>
  <path class="blr" d="M767.1,238.4c-1.2,1.2-2,2.6-2.4,4.2-.4,1.6-.4,3.3,0,4.9.4,1.6,1.2,3,2.4,4.2l16.7,16.7c1.2,1.2,2.6,2,4.2,2.4,1.6.4,3.2.4,4.9,0,1.6-.4,3-1.2,4.2-2.4s2-2.6,2.4-4.2l6.1-22.9c.4-1.6.4-3.3,0-4.9-.4-1.6-1.3-3-2.4-4.2s-2.6-2-4.2-2.5c-1.6-.4-3.2-.4-4.9,0l-22.9,6.1c-1.6.4-3,1.2-4.2,2.4"/>
  <path class="blr" d="M707.8,178.7c-.3,1.1-.3,2.2,0,3.2.3,1.1.8,2,1.6,2.8s1.7,1.3,2.8,1.6c1.1.3,2.2.3,3.2,0l15.2-4.1c1.1-.3,2-.8,2.8-1.6.8-.8,1.3-1.7,1.6-2.8.3-1.1.3-2.2,0-3.2-.3-1.1-.8-2-1.6-2.8l-11.2-11.2c-.8-.8-1.7-1.4-2.8-1.6-1.1-.3-2.1-.3-3.2,0-1.1.3-2,.8-2.8,1.6s-1.3,1.7-1.6,2.8l-4.1,15.2"/>
  <path class="blr" d="M720.3,28.6c-.1.5-.1,1.1,0,1.6.1.5.4,1,.8,1.4s.9.7,1.4.8c.5.1,1.1.1,1.6,0l7.6-2c.5-.1,1-.4,1.4-.8.4-.4.7-.9.8-1.4.1-.5.1-1.1,0-1.6-.1-.5-.4-1-.8-1.4l-5.6-5.6c-.4-.4-.9-.7-1.4-.8-.5-.1-1.1-.1-1.6,0-.5.1-1,.4-1.4.8s-.7.9-.8,1.4l-2,7.6"/>
  <path class="blr" d="M567,188.1c.5.1,1.1.1,1.6,0l7.6-2c.5-.1,1-.4,1.4-.8.4-.4.7-.9.8-1.4.1-.5.1-1.1,0-1.6-.1-.5-.4-1-.8-1.4l-5.6-5.6c-.4-.4-.9-.7-1.4-.8-.5-.1-1.1-.1-1.6,0-.5.1-1,.4-1.4.8s-.7.9-.8,1.4l-2,7.6c-.1.5-.1,1.1,0,1.6.1.5.4,1,.8,1.4s.9.7,1.4.8"/>
  <path class="blr" d="M553.8,340.4c.8.8,1.7,1.3,2.8,1.6,1.1.3,2.2.3,3.2,0l15.2-4.1c1.1-.3,2-.8,2.8-1.6.8-.8,1.3-1.7,1.6-2.8.3-1.1.3-2.2,0-3.2-.3-1.1-.8-2-1.6-2.8l-11.2-11.2c-.8-.8-1.7-1.4-2.8-1.6-1.1-.3-2.1-.3-3.2,0-1.1.3-2,.8-2.8,1.6s-1.3,1.7-1.6,2.8l-4.1,15.2c-.3,1.1-.3,2.2,0,3.2.3,1.1.8,2,1.6,2.8"/>
  <path class="blr" d="M697.7,337.9c1.2,1.2,2.6,2,4.2,2.5,1.6.4,3.2.4,4.9,0l22.9-6.1c1.6-.4,3-1.2,4.2-2.4s2-2.6,2.4-4.2c.4-1.6.4-3.3,0-4.9-.4-1.6-1.2-3-2.4-4.2l-16.7-16.7c-1.2-1.2-2.6-2-4.2-2.4-1.6-.4-3.2-.4-4.9,0-1.6.4-3,1.2-4.2,2.4s-2,2.6-2.4,4.2l-6.1,22.9c-.4,1.6-.4,3.3,0,4.9.4,1.6,1.3,3,2.4,4.2"/>
  <path class="blr" d="M686,491c1.6,1.6,3.5,2.7,5.6,3.3,2.1.6,4.3.5,6.5,0l30.5-8.2c2.2-.6,4.1-1.6,5.6-3.2s2.7-3.5,3.2-5.6c.6-2.2.6-4.4,0-6.5-.5-2.1-1.6-4-3.3-5.6l-22.3-22.3c-1.6-1.6-3.5-2.7-5.6-3.3-2.1-.6-4.3-.6-6.5,0-2.2.6-4.1,1.6-5.6,3.2s-2.7,3.5-3.2,5.6l-8.2,30.5c-.6,2.2-.6,4.3,0,6.5.6,2.2,1.7,4,3.3,5.6"/>
  <path class="blr" d="M542.1,493.5c1.2,1.2,2.6,2,4.2,2.5,1.6.4,3.2.4,4.9,0l22.9-6.1c1.6-.4,3-1.2,4.2-2.4s2-2.6,2.4-4.2c.4-1.6.4-3.3,0-4.9-.4-1.6-1.2-3-2.4-4.2l-16.7-16.7c-1.2-1.2-2.6-2-4.2-2.4-1.6-.4-3.2-.4-4.9,0-1.6.4-3,1.2-4.2,2.4s-2,2.6-2.4,4.2l-6.1,22.9c-.4,1.6-.4,3.3,0,4.9.4,1.6,1.3,3,2.4,4.2"/>
  <path class="blr" d="M593.8,552c.5,2.1,1.6,4,3.3,5.6l22.3,22.3c1.6,1.6,3.5,2.7,5.6,3.3,2.1.6,4.3.6,6.5,0,2.2-.6,4.1-1.6,5.6-3.2,1.6-1.6,2.7-3.5,3.2-5.6l8.2-30.5c.6-2.2.6-4.3,0-6.5-.6-2.2-1.7-4-3.3-5.6s-3.5-2.7-5.6-3.3c-2.1-.6-4.3-.5-6.5,0l-30.5,8.2c-2.2.6-4.1,1.6-5.6,3.2-1.6,1.6-2.7,3.5-3.2,5.6-.6,2.2-.6,4.4,0,6.5"/>
  <path class="blr" d="M527.2,634.5c-.6,2.2-.6,4.3,0,6.5.6,2.2,1.7,4,3.3,5.6,1.6,1.6,3.5,2.7,5.6,3.3,2.1.6,4.3.5,6.5,0l30.5-8.2c2.2-.6,4.1-1.6,5.6-3.2,1.6-1.6,2.7-3.5,3.2-5.6.6-2.2.6-4.4,0-6.5-.5-2.1-1.6-4-3.3-5.6l-22.3-22.3c-1.6-1.6-3.5-2.7-5.6-3.3-2.1-.6-4.3-.6-6.5,0-2.2.6-4.1,1.6-5.6,3.2-1.6,1.6-2.7,3.5-3.2,5.6l-8.2,30.5"/>
  <path class="blr" d="M484.5,425.3c1.1.3,2.1.3,3.2,0,1.1-.3,2-.8,2.8-1.6s1.3-1.7,1.6-2.8l4.1-15.2c.3-1.1.3-2.2,0-3.2-.3-1.1-.8-2-1.6-2.8s-1.7-1.3-2.8-1.6c-1.1-.3-2.2-.3-3.2,0l-15.2,4.1c-1.1.3-2,.8-2.8,1.6-.8.8-1.3,1.7-1.6,2.8-.3,1.1-.3,2.2,0,3.2.3,1.1.8,2,1.6,2.8l11.2,11.2c.8.8,1.7,1.4,2.8,1.6"/>
  <path class="blr" d="M460.2,547.1c-1.6.4-3,1.2-4.2,2.4-1.2,1.2-2,2.6-2.4,4.2-.4,1.6-.4,3.3,0,4.9.4,1.6,1.2,3,2.4,4.2l16.7,16.7c1.2,1.2,2.6,2,4.2,2.4,1.6.4,3.2.4,4.9,0,1.6-.4,3-1.2,4.2-2.4,1.2-1.2,2-2.6,2.4-4.2l6.1-22.9c.4-1.6.4-3.3,0-4.9-.4-1.6-1.3-3-2.4-4.2s-2.6-2-4.2-2.5c-1.6-.4-3.2-.4-4.9,0l-22.9,6.1"/>
  <path class="blr" d="M326.1,579.2c.8.8,1.7,1.4,2.8,1.6,1.1.3,2.1.3,3.2,0,1.1-.3,2-.8,2.8-1.6s1.3-1.7,1.6-2.8l4.1-15.2c.3-1.1.3-2.2,0-3.2-.3-1.1-.8-2-1.6-2.8-.8-.8-1.7-1.3-2.8-1.6-1.1-.3-2.2-.3-3.2,0l-15.2,4.1c-1.1.3-2,.8-2.8,1.6-.8.8-1.3,1.7-1.6,2.8-.3,1.1-.3,2.2,0,3.2.3,1.1.8,2,1.6,2.8l11.2,11.2"/>
  <path class="blr" d="M438.2,707.6c.5,2.1,1.6,4,3.3,5.6l22.3,22.3c1.6,1.6,3.5,2.7,5.6,3.3,2.1.6,4.3.6,6.5,0,2.2-.6,4.1-1.6,5.6-3.2,1.6-1.6,2.7-3.5,3.2-5.6l8.2-30.5c.6-2.2.6-4.3,0-6.5-.6-2.2-1.7-4-3.3-5.6-1.6-1.6-3.5-2.7-5.6-3.3-2.1-.6-4.3-.5-6.5,0l-30.5,8.2c-2.2.6-4.1,1.6-5.6,3.2-1.6,1.6-2.7,3.5-3.2,5.6-.6,2.2-.6,4.4,0,6.5"/>
  <path class="blr" d="M374.9,802.2c1.6,1.6,3.5,2.7,5.6,3.3,2.1.6,4.3.5,6.5,0l30.5-8.2c2.2-.6,4.1-1.6,5.6-3.2,1.6-1.6,2.7-3.5,3.2-5.6.6-2.2.6-4.4,0-6.5-.5-2.1-1.6-4-3.3-5.6l-22.3-22.3c-1.6-1.6-3.5-2.7-5.6-3.3-2.1-.6-4.3-.6-6.5,0-2.2.6-4.1,1.6-5.6,3.2-1.6,1.6-2.7,3.5-3.2,5.6l-8.2,30.5c-.6,2.2-.6,4.3,0,6.5.6,2.2,1.7,4,3.3,5.6"/>
  <path class="blr" d="M298,714.2c.4,1.6,1.2,3,2.4,4.2l16.7,16.7c1.2,1.2,2.6,2,4.2,2.4,1.6.4,3.2.4,4.9,0,1.6-.4,3-1.2,4.2-2.4s2-2.6,2.4-4.2l6.1-22.9c.4-1.6.4-3.3,0-4.9-.4-1.6-1.3-3-2.4-4.2s-2.6-2-4.2-2.5c-1.6-.4-3.2-.4-4.9,0l-22.9,6.1c-1.6.4-3,1.2-4.2,2.4-1.2,1.2-2,2.6-2.4,4.2-.4,1.6-.4,3.3,0,4.9"/>
  <path class="blr" d="M282.7,863.1c.5,2.1,1.6,4,3.3,5.6l22.3,22.3c1.6,1.6,3.5,2.7,5.6,3.3,2.1.6,4.3.6,6.5,0,2.2-.6,4.1-1.6,5.6-3.2,1.6-1.6,2.7-3.5,3.2-5.6l8.2-30.5c.6-2.2.6-4.3,0-6.5-.6-2.2-1.7-4-3.3-5.6s-3.5-2.7-5.6-3.3c-2.1-.6-4.3-.5-6.5,0l-30.5,8.2c-2.2.6-4.1,1.6-5.6,3.2s-2.7,3.5-3.2,5.6c-.6,2.2-.6,4.4,0,6.5"/>
  <path class="blr" d="M237.1,768.4c-1.2,1.2-2,2.6-2.4,4.2l-6.1,22.9c-.4,1.6-.4,3.3,0,4.9.4,1.6,1.3,3,2.4,4.2,1.2,1.2,2.6,2,4.2,2.5,1.6.4,3.2.4,4.9,0l22.9-6.1c1.6-.4,3-1.2,4.2-2.4s2-2.6,2.4-4.2c.4-1.6.4-3.3,0-4.9-.4-1.6-1.2-3-2.4-4.2l-16.7-16.7c-1.2-1.2-2.6-2-4.2-2.4-1.6-.4-3.2-.4-4.9,0-1.6.4-3,1.2-4.2,2.4"/>
  <path class="blr" d="M173.3,736.4c1.1.3,2.1.3,3.2,0,1.1-.3,2-.8,2.8-1.6s1.3-1.7,1.6-2.8l4.1-15.2c.3-1.1.3-2.2,0-3.2-.3-1.1-.8-2-1.6-2.8s-1.7-1.3-2.8-1.6c-1.1-.3-2.2-.3-3.2,0l-15.2,4.1c-1.1.3-2,.8-2.8,1.6-.8.8-1.3,1.7-1.6,2.8-.3,1.1-.3,2.2,0,3.2.3,1.1.8,2,1.6,2.8l11.2,11.2c.8.8,1.7,1.4,2.8,1.6"/>
  <path class="blr" d="M94.1,781.3c-1.1.3-2,.8-2.8,1.6s-1.3,1.7-1.6,2.8l-4.1,15.2c-.3,1.1-.3,2.2,0,3.2.3,1.1.8,2,1.6,2.8s1.7,1.3,2.8,1.6c1.1.3,2.2.3,3.2,0l15.2-4.1c1.1-.3,2-.8,2.8-1.6.8-.8,1.3-1.7,1.6-2.8.3-1.1.3-2.2,0-3.2-.3-1.1-.8-2-1.6-2.8l-11.2-11.2c-.8-.8-1.7-1.4-2.8-1.6-1.1-.3-2.1-.3-3.2,0"/>
  <path class="blr" d="M253.6,495.3c-.1.5-.1,1.1,0,1.6.1.5.4,1,.8,1.4s.9.7,1.4.8c.5.1,1.1.1,1.6,0l7.6-2c.5-.1,1-.4,1.4-.8.4-.4.7-.9.8-1.4.1-.5.1-1.1,0-1.6-.1-.5-.4-1-.8-1.4l-5.6-5.6c-.4-.4-.9-.7-1.4-.8-.5-.1-1.1-.1-1.6,0-.5.1-1,.4-1.4.8s-.7.9-.8,1.4l-2,7.6"/>
  <path class="blr" d="M173,571.9c.1.5.4,1,.8,1.4l5.6,5.6c.4.4.9.7,1.4.8.5.1,1.1.1,1.6,0,.5-.1,1-.4,1.4-.8s.7-.9.8-1.4l2-7.6c.1-.5.1-1.1,0-1.6-.1-.5-.4-1-.8-1.4s-.9-.7-1.4-.8c-.5-.1-1.1-.1-1.6,0l-7.6,2c-.5.1-1,.4-1.4.8-.4.4-.7.9-.8,1.4-.1.5-.1,1.1,0,1.6"/>
</svg>