<?xml version="1.0" encoding="UTF-8"?>
<svg id="Layer_2" xmlns="http://www.w3.org/2000/svg" version="1.1" xmlns:xlink="http://www.w3.org/1999/xlink" viewBox="0 0 1271.5 1148.3">
  <!-- Generator: Adobe Illustrator 29.5.1, SVG Export Plug-In . SVG Version: 2.1.0 Build 141)  -->
  <defs>
    <style>
      .st0, .st1 {
        fill: none;
      }

      .st1 {
        opacity: .3;
        stroke: #fff;
        stroke-miterlimit: 10;
      }

      .st2 {
        fill: url(#linear-gradient);
      }

      .st3 {
        clip-path: url(#clippath);
      }
    </style>
    <linearGradient id="linear-gradient" x1="92.6" y1="574.2" x2="1178.9" y2="574.2" gradientUnits="userSpaceOnUse">
      <stop offset="0" stop-color="#011e4a"/>
      <stop offset="1" stop-color="#5c0035"/>
    </linearGradient>
    <clipPath id="clippath">
      <path class="st0" d="M974.5,21.5c-43-8-85.6-4.3-128,10.9L257.3,243.4c-42,15.1-77.3,39.3-105.8,72.8-28.3,33.3-46.4,72.3-54.6,116.5-8.1,44.3-4.9,87.1,9.9,128.4,14.9,41.7,39.5,76.8,73.8,105.5l476.9,404.9c34.6,28.9,73.3,47.3,116.4,55.3,43.4,7.9,86,4.1,128-10.9,42.3-15.1,77.8-39.5,106.4-73,28.3-33.3,46.4-72.3,54.6-116.5l111.6-615.6c8.3-43.9,5.1-86.8-9.9-128.4-14.8-41.3-39.4-76.5-73.8-105.5-34.5-29-73.2-47.4-116.2-55.4"/>
    </clipPath>
  </defs>
  <path class="st2" d="M974.5,21.5c-43-8-85.6-4.3-128,10.9L257.3,243.4c-42,15.1-77.3,39.3-105.8,72.8-28.3,33.3-46.4,72.3-54.6,116.5-8.1,44.3-4.9,87.1,9.9,128.4,14.9,41.7,39.5,76.8,73.8,105.5l476.9,404.9c34.6,28.9,73.3,47.3,116.4,55.3,43.4,7.9,86,4.1,128-10.9,42.3-15.1,77.8-39.5,106.4-73,28.3-33.3,46.4-72.3,54.6-116.5l111.6-615.6c8.3-43.9,5.1-86.8-9.9-128.4-14.8-41.3-39.4-76.5-73.8-105.5-34.5-29-73.2-47.4-116.2-55.4"/>
  <g class="st3">
    <g>
      <path class="st1" d="M550.2,910.9c1.2,4.8,3.6,8.9,7,12.3s7.6,5.8,12.3,7l66.5,17.9c4.8,1.2,9.5,1.3,14.2,0,4.7-1.3,8.8-3.7,12.2-7.1,3.5-3.5,5.9-7.6,7.2-12.3,1.2-4.7,1.2-9.4,0-14.2l-17.9-66.5c-1.2-4.8-3.6-8.9-7-12.3-3.4-3.4-7.6-5.8-12.3-7-4.8-1.3-9.5-1.3-14.2,0-4.6,1.2-8.7,3.6-12.2,7.1l-48.7,48.7c-3.5,3.5-5.9,7.6-7.1,12.2-1.2,4.7-1.2,9.4,0,14.2"/>
      <path class="st1" d="M445.7,724.2c-3.5,3.5-5.9,7.6-7.2,12.3-1.2,4.7-1.2,9.4,0,14.2l17.9,66.5c1.2,4.8,3.6,8.9,7,12.3s7.6,5.8,12.3,7c4.8,1.3,9.5,1.3,14.2,0,4.6-1.2,8.7-3.6,12.2-7.1l48.7-48.7c3.5-3.5,5.9-7.6,7.1-12.2,1.2-4.7,1.2-9.4,0-14.2-1.2-4.8-3.6-8.9-7-12.3-3.4-3.4-7.6-5.8-12.3-7l-66.5-17.9c-4.8-1.2-9.5-1.3-14.2,0-4.7,1.3-8.8,3.7-12.2,7.1"/>
      <path class="st1" d="M276.4,883.6c-1.5,5.6-1.5,11.3,0,17,1.5,5.7,4.3,10.6,8.4,14.8,4.1,4.1,9.1,6.9,14.8,8.4l79.9,21.4c5.7,1.5,11.4,1.5,17,0,5.7-1.6,10.5-4.4,14.7-8.5,4.2-4.2,7-9.1,8.6-14.7,1.5-5.6,1.4-11.3,0-17l-21.4-79.9c-1.5-5.7-4.3-10.6-8.4-14.8-4.1-4.1-9.1-6.9-14.8-8.4-5.8-1.5-11.4-1.5-17,0-5.5,1.4-10.4,4.3-14.7,8.5l-58.5,58.5c-4.2,4.2-7.1,9.1-8.5,14.7"/>
      <path class="st1" d="M178.3,703.8c-4.2,4.2-7,9.1-8.6,14.7-1.5,5.6-1.4,11.3,0,17l21.4,79.9c1.5,5.7,4.3,10.6,8.4,14.8,4.1,4.1,9.1,6.9,14.8,8.4,5.8,1.5,11.4,1.5,17,0,5.5-1.4,10.4-4.3,14.7-8.5l58.5-58.5c4.2-4.2,7.1-9.1,8.5-14.7,1.5-5.6,1.5-11.3,0-17-1.5-5.7-4.3-10.6-8.4-14.8-4.1-4.1-9.1-6.9-14.8-8.4l-79.9-21.4c-5.7-1.5-11.4-1.5-17,0-5.7,1.6-10.5,4.4-14.7,8.5"/>
      <path class="st1" d="M174,452.6c-3.5,3.5-5.9,7.6-7.2,12.3-1.2,4.7-1.2,9.4,0,14.2l17.9,66.5c1.2,4.8,3.6,8.9,7,12.3,3.4,3.4,7.6,5.8,12.3,7,4.8,1.3,9.5,1.3,14.2,0,4.6-1.2,8.7-3.6,12.2-7.1l48.7-48.7c3.5-3.5,5.9-7.6,7.1-12.2,1.2-4.7,1.2-9.4,0-14.2-1.2-4.8-3.6-8.9-7-12.3-3.4-3.4-7.6-5.8-12.3-7l-66.5-17.9c-4.8-1.2-9.5-1.3-14.2,0-4.7,1.3-8.8,3.7-12.2,7.1"/>
      <path class="st1" d="M86.5,530.2c-5.5,1.4-10.4,4.3-14.7,8.5l-58.5,58.5c-4.2,4.2-7.1,9.1-8.5,14.7-1.5,5.6-1.5,11.3,0,17,1.5,5.7,4.3,10.6,8.4,14.8s9.1,6.9,14.8,8.4l79.9,21.4c5.7,1.5,11.4,1.5,17,0,5.7-1.6,10.5-4.4,14.7-8.5,4.2-4.2,7-9.1,8.6-14.7,1.5-5.6,1.4-11.3,0-17l-21.4-79.9c-1.5-5.7-4.3-10.6-8.4-14.8-4.1-4.1-9.1-6.9-14.8-8.4-5.8-1.5-11.4-1.5-17,0"/>
      <path class="st1" d="M878.3,855.3c-3.7.9-6.9,2.8-9.8,5.7l-39,39c-2.8,2.8-4.7,6.1-5.7,9.8-1,3.7-1,7.5,0,11.3,1,3.8,2.9,7.1,5.6,9.9s6,4.6,9.9,5.6l53.2,14.3c3.8,1,7.6,1,11.3,0,3.8-1,7-2.9,9.8-5.7s4.7-6.1,5.7-9.8c1-3.7,1-7.5,0-11.3l-14.3-53.2c-1-3.8-2.9-7.1-5.6-9.9-2.8-2.8-6-4.6-9.9-5.6-3.8-1-7.6-1-11.3,0"/>
      <path class="st1" d="M882.6,614.7c-2.1-2.1-4.5-3.5-7.4-4.2-2.9-.8-5.7-.8-8.5,0-2.8.7-5.2,2.1-7.3,4.3l-29.2,29.2c-2.1,2.1-3.5,4.6-4.3,7.3-.7,2.8-.7,5.6,0,8.5.7,2.9,2.1,5.3,4.2,7.4s4.5,3.5,7.4,4.2l39.9,10.7c2.9.7,5.7.8,8.5,0,2.8-.8,5.3-2.2,7.3-4.3,2.1-2.1,3.5-4.5,4.3-7.4.7-2.8.7-5.6,0-8.5l-10.7-39.9c-.7-2.9-2.1-5.3-4.2-7.4"/>
      <path class="st1" d="M986.8,511.1c-1.9-.5-3.8-.5-5.7,0-1.9.5-3.5,1.5-4.9,2.8s-2.3,3-2.9,4.9c-.5,1.9-.5,3.8,0,5.7l7.1,26.6c.5,1.9,1.4,3.5,2.8,4.9,1.4,1.4,3,2.3,4.9,2.8,1.9.5,3.8.5,5.7,0,1.8-.5,3.5-1.4,4.9-2.8l19.5-19.5c1.4-1.4,2.4-3,2.8-4.9.5-1.9.5-3.8,0-5.7-.5-1.9-1.4-3.5-2.8-4.9s-3-2.3-4.9-2.8l-26.6-7.1"/>
      <path class="st1" d="M970.5,265.1c-.2.9-.2,1.9,0,2.8l3.6,13.3c.2,1,.7,1.8,1.4,2.5.7.7,1.5,1.2,2.5,1.4,1,.3,1.9.3,2.8,0,.9-.2,1.7-.7,2.4-1.4l9.7-9.7c.7-.7,1.2-1.5,1.4-2.4.2-.9.2-1.9,0-2.8-.2-1-.7-1.8-1.4-2.5s-1.5-1.2-2.5-1.4l-13.3-3.6c-1-.2-1.9-.3-2.8,0-.9.3-1.8.7-2.4,1.4s-1.2,1.5-1.4,2.5"/>
      <path class="st1" d="M704.5,242.3c-1.4,1.4-2.3,3-2.9,4.9-.5,1.9-.5,3.8,0,5.7l7.1,26.6c.5,1.9,1.4,3.5,2.8,4.9,1.4,1.4,3,2.3,4.9,2.8,1.9.5,3.8.5,5.7,0,1.8-.5,3.5-1.4,4.9-2.8l19.5-19.5c1.4-1.4,2.4-3,2.8-4.9.5-1.9.5-3.8,0-5.7-.5-1.9-1.4-3.5-2.8-4.9s-3-2.3-4.9-2.8l-26.6-7.1c-1.9-.5-3.8-.5-5.7,0-1.9.5-3.5,1.5-4.9,2.8"/>
      <path class="st1" d="M708.8,493.5c-2.1,2.1-3.5,4.5-4.3,7.4-.7,2.8-.7,5.6,0,8.5l10.7,39.9c.7,2.9,2.1,5.3,4.2,7.4,2.1,2.1,4.5,3.5,7.4,4.2,2.9.8,5.7.8,8.5,0,2.8-.7,5.2-2.1,7.3-4.3l29.2-29.2c2.1-2.1,3.5-4.6,4.3-7.3.7-2.8.7-5.6,0-8.5-.7-2.9-2.1-5.3-4.2-7.4s-4.5-3.5-7.4-4.2l-39.9-10.7c-2.9-.7-5.7-.8-8.5,0-2.8.8-5.3,2.2-7.3,4.3"/>
      <path class="st1" d="M441.4,473c-2.8,2.8-4.7,6.1-5.7,9.8-1,3.7-1,7.5,0,11.3l14.3,53.2c1,3.8,2.9,7.1,5.6,9.9s6,4.6,9.9,5.6c3.8,1,7.6,1,11.3,0,3.7-.9,6.9-2.8,9.8-5.7l39-39c2.8-2.8,4.7-6.1,5.7-9.8,1-3.7,1-7.5,0-11.3-1-3.8-2.9-7.1-5.6-9.9s-6-4.6-9.9-5.6l-53.2-14.3c-3.8-1-7.6-1-11.3,0-3.8,1-7,2.9-9.8,5.7"/>
      <path class="st1" d="M437.1,221.8c-2.1,2.1-3.5,4.5-4.3,7.4-.7,2.8-.7,5.6,0,8.5l10.7,39.9c.7,2.9,2.1,5.3,4.2,7.4s4.5,3.5,7.4,4.2c2.9.8,5.7.8,8.5,0,2.8-.7,5.2-2.1,7.3-4.3l29.2-29.2c2.1-2.1,3.5-4.6,4.3-7.3.7-2.8.7-5.6,0-8.5-.7-2.9-2.1-5.3-4.2-7.4s-4.5-3.5-7.4-4.2l-39.9-10.7c-2.9-.7-5.7-.8-8.5,0-2.8.8-5.3,2.2-7.3,4.3"/>
      <path class="st1" d="M335,312c-3.7.9-6.9,2.8-9.8,5.7l-39,39c-2.8,2.8-4.7,6.1-5.7,9.8-1,3.7-1,7.5,0,11.3,1,3.8,2.9,7.1,5.6,9.9,2.8,2.8,6,4.6,9.9,5.6l53.2,14.3c3.8,1,7.6,1,11.3,0,3.8-1,7-2.9,9.8-5.7,2.8-2.8,4.7-6.1,5.7-9.8,1-3.7,1-7.5,0-11.3l-14.3-53.2c-1-3.8-2.9-7.1-5.6-9.9-2.8-2.8-6-4.6-9.9-5.6-3.8-1-7.6-1-11.3,0"/>
      <path class="st1" d="M556.2,121.1c-.5,1.9-.5,3.8,0,5.7.5,1.9,1.4,3.5,2.8,4.9s3,2.3,4.9,2.8l26.6,7.1c1.9.5,3.8.5,5.7,0,1.9-.5,3.5-1.5,4.9-2.8s2.3-3,2.9-4.9c.5-1.9.5-3.8,0-5.7l-7.1-26.6c-.5-1.9-1.4-3.5-2.8-4.9-1.4-1.4-3-2.3-4.9-2.8-1.9-.5-3.8-.5-5.7,0-1.8.5-3.5,1.4-4.9,2.8l-19.5,19.5c-1.4,1.4-2.4,3-2.8,4.9"/>
    </g>
  </g>
</svg>